<?xml version="1.0" standalone="no"?>
<!DOCTYPE svg PUBLIC "-//W3C//DTD SVG 1.1//EN" "http://www.w3.org/Graphics/SVG/1.1/DTD/svg11.dtd" >
<svg xmlns="http://www.w3.org/2000/svg">
<metadata></metadata>
<defs>
<font id="avant_guardregular" horiz-adv-x="500" >
<font-face units-per-em="1000" ascent="800" descent="-200" />
<missing-glyph horiz-adv-x="267" />
<glyph unicode="&#xd;" horiz-adv-x="267" />
<glyph unicode=" "  horiz-adv-x="267" />
<glyph unicode="&#x09;" horiz-adv-x="267" />
<glyph unicode="&#xa0;" horiz-adv-x="267" />
<glyph unicode="!" horiz-adv-x="287" d="M109 131h69v-131h-69v131zM109 711h69v-525h-69v525z" />
<glyph unicode="&#x22;" horiz-adv-x="277" d="M98 430h-49v269h49v-269zM230 430h-48v269h48v-269z" />
<glyph unicode="#" horiz-adv-x="770" d="M129 475h174l84 236h60l-82 -236h129l84 236h63l-82 -236h154l-20 -53h-154l-49 -135h166l-17 -53h-166l-82 -234h-65l84 234h-131l-84 -234h-60l82 234h-160l19 53h158l49 135h-172zM430 287l47 135h-131l-47 -135h131z" />
<glyph unicode="$" horiz-adv-x="564" d="M74 211h69q0 -43 9.5 -73t43 -53t88.5 -23q35 0 67 13.5t52 48t20 74.5q0 54 -32 84t-82 47l-50 17l-50 17q-50 17 -79.5 47.5t-35.5 93.5l-1 18q0 62 27.5 101.5t57 56t70.5 25.5v104h70v-104q78 -12 114.5 -54.5t44.5 -123.5h-71q0 28 -8.5 50t-33 46t-78.5 24 q-23 0 -38.5 -3.5t-26 -9t-26.5 -21t-25 -38t-9 -49.5q0 -51 30 -76t105 -52l103 -37q30 -12 61.5 -49t31.5 -101q0 -86 -34.5 -129t-66.5 -60q-17 -7 -32.5 -11.5t-40.5 -8.5v-119h-70v119q-84 14 -129 68.5t-45 140.5z" />
<glyph unicode="%" horiz-adv-x="877" d="M482 160q0 49 24.5 89.5t55.5 57t52.5 22.5t44.5 6q36 0 74.5 -16.5t68.5 -61t30 -97.5q0 -46 -23 -87q-26 -42 -66 -64.5t-87 -22.5q-37 0 -66 12.5t-55 38t-39 57.5q-8 16 -11 31t-3 35zM545 160q0 -50 32.5 -79t77.5 -29t78 29t33 79q0 53 -33.5 82t-77.5 29 q-43 0 -76.5 -29t-33.5 -82zM277 -14h-56l379 739h56zM45 551q0 34 14 67t40.5 57.5t55.5 35.5q30 13 66 13q34 0 74.5 -16t70 -61.5t29.5 -95.5q0 -47 -23 -88q-26 -42 -66 -65t-87 -23q-46 0 -86.5 23.5t-64 64.5t-23.5 88zM107 549q0 -36 15 -61t36.5 -35t34 -12.5 t24.5 -2.5q45 0 78 29.5t33 81.5q0 50 -33 79t-77 29q-46 0 -78.5 -29t-32.5 -79z" />
<glyph unicode="&#x26;" horiz-adv-x="693" d="M674 55l-43 -51l-147 131q-31 -57 -54.5 -80.5t-44 -36t-49.5 -21.5t-64 -9q-82 0 -128 42.5t-64 84.5t-18 87q0 24 6 50q29 98 129 150l-25 25l-23 27q-11 13 -22.5 37.5t-11.5 59.5q0 40 19 80.5t63 67t92 26.5q22 0 50.5 -8.5t55 -32.5t43 -57t16.5 -69l-1 -15 q0 -26 -10 -47.5t-38 -51.5t-87 -59l145 -133l84 221h74l-105 -272zM434 182l-190 175q-39 -22 -63.5 -45.5t-34 -54t-9.5 -56.5q0 -65 40 -104t97 -39q32 0 61.5 14.5t45 33t28 37t25.5 39.5zM271 432q110 47 110 129q0 35 -23 63.5t-59 33.5l-11 1q-25 0 -47.5 -11.5 t-37 -32.5t-14.5 -43l-1 -11q0 -39 20.5 -66.5t62.5 -62.5z" />
<glyph unicode="'" horiz-adv-x="193" d="M88 711h68l-76 -209h-68z" />
<glyph unicode="(" horiz-adv-x="264" d="M211 725v-79q-50 -42 -65 -95t-15 -137v-320q0 -82 14.5 -134t65.5 -97v-78q-79 42 -114.5 120t-35.5 177v346q0 33 1 48.5t7 41.5q7 44 26 83q16 38 46 70.5t70 53.5z" />
<glyph unicode=")" horiz-adv-x="264" d="M53 646v79q57 -31 88 -74.5t46.5 -102.5t15.5 -120v-346q0 -60 -15 -119.5t-48 -104.5t-87 -73v78q35 30 52.5 64t23.5 76t6 91v320q0 51 -6.5 94t-23.5 75.5t-52 62.5z" />
<glyph unicode="*" d="M391 385l-51 -33l-92 127l-88 -129l-53 37l98 123l-144 41l17 58l143 -46v148h56v-148l141 44l21 -54l-148 -41z" />
<glyph unicode="+" horiz-adv-x="832" d="M123 322h270v274h48v-274h268v-49h-268v-273h-48v273h-270v49z" />
<glyph unicode="," horiz-adv-x="281" d="M127 131h70l-76 -209h-70z" />
<glyph unicode="-" horiz-adv-x="322" d="M47 236v65h228v-65h-228z" />
<glyph unicode="." horiz-adv-x="281" d="M105 131h71v-131h-71v131z" />
<glyph unicode="/" horiz-adv-x="277" d="M219 711h58l-242 -803h-58z" />
<glyph unicode="0" horiz-adv-x="564" d="M43 250v211v32.5t3 35.5t5.5 32t10 27.5t16 31t32 39.5t72.5 47t106 21h15.5t23 -3t33 -8.5t36.5 -14.5t45.5 -30.5t43.5 -46t25 -48t10 -52.5t3 -59v-219q0 -60 -8 -92t-18 -51t-35 -46.5t-76 -49t-105 -21.5q-50 0 -99 20.5t-77 50t-38 52.5t-14.5 39.5t-6 30.5 t-2.5 33t-1 38zM111 475v-241q0 -39 8.5 -72t45.5 -73t116 -40q56 0 94.5 23t58 64.5t19.5 95.5v247q0 73 -24.5 110t-63.5 55t-84 18q-42 0 -77 -16q-37 -19 -63 -50q-18 -24 -24 -52.5t-6 -68.5z" />
<glyph unicode="1" horiz-adv-x="564" d="M131 711h197v-711h-72v650h-125v61z" />
<glyph unicode="2" horiz-adv-x="564" d="M156 68h350v-68h-442v68l252 241q25 23 43 42t42 45q27 33 35 75l4 33q0 46 -23 82q-22 39 -57 57.5t-73 18.5q-66 0 -99 -34t-43.5 -67.5t-10.5 -73.5l1 -6v-8h-71q0 35 7 67.5t25 75t74 75.5t118 33q51 0 93.5 -20t70 -51.5t43.5 -71.5q13 -38 13 -83v-18 q-6 -54 -34.5 -99t-77.5 -92z" />
<glyph unicode="3" horiz-adv-x="564" d="M53 217h70q0 -40 12.5 -72t47 -65.5t96.5 -33.5q39 0 78 21.5t61 61.5q19 38 19 81q0 41 -17 78.5t-39.5 53t-38.5 22t-41 10t-68 3.5h-18v59h33q37 0 69 8q29 9 50 37.5t21 68.5q0 18 -5.5 35t-17.5 36.5t-35 31t-50 11.5h-16q-9 -3 -26 -7t-34 -20t-24 -34.5t-9.5 -30 t-2.5 -27.5h-64q0 16 2.5 28.5t10 36.5t25.5 48t52.5 45.5t86.5 21.5q53 0 96 -26q37 -25 59.5 -67.5t22.5 -84.5q0 -20 -5 -38.5t-16 -39.5t-47 -51q35 -20 61.5 -49t36.5 -54t14.5 -46t4.5 -42q0 -43 -14.5 -84.5t-39 -73.5t-59.5 -55q-48 -28 -115 -28q-52 0 -107 22.5 t-86 75.5q-15 29 -24.5 62.5t-9.5 70.5z" />
<glyph unicode="4" horiz-adv-x="564" d="M521 137h-76v-137h-68v137h-334v62l322 512h80v-512h76v-62zM381 629l-266 -430h264z" />
<glyph unicode="5" horiz-adv-x="564" d="M41 215h70q4 -39 20.5 -71.5t39.5 -52t51.5 -30t59.5 -10.5q70 0 120.5 48.5t50.5 132.5q0 56 -24 97t-63 65q-41 21 -85 21q-40 0 -80.5 -20t-71.5 -61l-55 25l63 352h320v-70h-260l-37 -198q68 42 136 42q61 0 114.5 -33t84 -90.5t30.5 -122.5q0 -20 -3 -40.5 t-19.5 -70t-80 -95.5t-143.5 -46l-19 1q-52 5 -96.5 29.5t-66 54t-31.5 50.5l-15 44q-7 23 -10 49z" />
<glyph unicode="6" horiz-adv-x="564" d="M143 461l160 250h88l-166 -258q20 4 41.5 7t38.5 3q131 0 175 -84.5t44 -147.5q0 -53 -21 -102.5t-57 -81.5t-79 -46.5t-84 -14.5q-52 0 -103 21t-86 63q-25 33 -39 70t-14 80q0 18 2 32.5t10.5 47t29.5 69.5zM113 234q0 -71 43 -122.5t110 -60.5q6 -2 25 -2q61 0 97 35 t48.5 61t12.5 58l1 23q0 44 -9.5 68t-19 38t-21 24.5t-25.5 20t-35 17.5t-56 8q-34 0 -62 -11t-54 -32q-24 -22 -34.5 -44.5t-15.5 -42t-5 -38.5z" />
<glyph unicode="7" horiz-adv-x="564" d="M492 711v-65l-285 -646h-76l279 641h-310v70h392z" />
<glyph unicode="8" horiz-adv-x="564" d="M162 396q-37 30 -56.5 65.5t-19.5 76.5q0 45 25.5 89.5t72 71.5t104.5 27l13 -1q23 0 45.5 -7.5t54.5 -28t55 -63t23 -85.5t-20 -79.5t-61 -65.5q58 -34 85 -78q28 -41 28 -101l-1 -29q-9 -61 -39.5 -106t-79.5 -70.5t-108 -25.5q-75 0 -136.5 45.5t-77.5 101.5t-16 86 q0 55 28 98t81 79zM127 203q0 -50 22.5 -85t58 -53t74.5 -18q38 0 75.5 18.5t58.5 55.5q22 35 22 86t-22 86t-58 53.5t-76 18.5t-75.5 -18.5t-57.5 -55t-22 -88.5zM156 543q0 -51 39 -83t90 -32q33 0 61 14q28 12 46 40t18 65q0 30 -11 49q-11 24 -22.5 33t-23 15t-28 11.5 t-40.5 5.5q-53 0 -91 -31t-38 -87z" />
<glyph unicode="9" horiz-adv-x="564" d="M424 252l-162 -250h-86l166 256q-43 -10 -82 -10q-110 0 -164.5 74t-54.5 159q0 62 26 115t82 92.5t131 39.5q46 0 92 -17t81 -51.5t52.5 -77t17.5 -89.5q0 -43 -10 -71t-18.5 -47.5t-19.5 -39.5zM451 477q0 47 -19 87t-54.5 65.5t-78.5 32.5l-20 2q-40 0 -77.5 -21.5 t-55.5 -49.5t-24.5 -46t-6.5 -39l-1 -22q0 -57 24 -97t61.5 -59.5t82.5 -19.5q43 0 81 19.5t56 48t25 51t7 48.5z" />
<glyph unicode=":" horiz-adv-x="287" d="M109 131h69v-131h-69v131zM109 537h69v-131h-69v131z" />
<glyph unicode=";" horiz-adv-x="287" d="M109 406v131h69v-131h-69zM127 131h70l-76 -209h-70z" />
<glyph unicode="&#x3c;" horiz-adv-x="832" d="M129 277v41l574 237v-53l-498 -203l498 -203v-53z" />
<glyph unicode="=" horiz-adv-x="832" d="M709 365h-586v47h586v-47zM709 184h-586v46h586v-46z" />
<glyph unicode="&#x3e;" horiz-adv-x="832" d="M629 299l-500 203v53l574 -237v-41l-574 -234v53z" />
<glyph unicode="?" horiz-adv-x="463" d="M268 131v-131h-71v131h71zM268 193h-71q0 23 3.5 39.5t15.5 47.5t34 59t65.5 69.5t43.5 91.5v19q0 35 -7 59q-15 35 -47 54.5t-72 19.5l-26 -2q-58 -7 -81.5 -47t-31.5 -109h-73q0 88 37.5 143t79.5 68.5t60.5 16.5t34.5 3q36 0 68.5 -10.5t60.5 -33.5t50.5 -63.5 t22.5 -103.5q0 -34 -10.5 -68.5t-33.5 -58.5l-43 -41q-35 -34 -47.5 -49.5t-20 -35.5t-10 -34t-2.5 -34z" />
<glyph unicode="@" horiz-adv-x="1000" d="M592 229l29 121q-9 47 -39.5 73t-69.5 26q-34 0 -69 -21t-60 -63.5t-37 -104.5l-3 -40q0 -57 30 -87t73 -30q48 0 90 33.5t56 92.5zM580 148q-24 -37 -62 -62t-82 -25q-74 0 -113.5 42.5t-39.5 113.5v17q0 26 6.5 53.5t18.5 52.5q20 47 52 80t73 51t78 18 q39 0 72.5 -20.5t51.5 -60.5l27 61h47l-68 -274q-4 -14 -6 -24.5t-2 -18.5q0 -19 12.5 -34t40.5 -15q27 0 46 9.5t32 17t42.5 31t55.5 86.5t26 128q0 39 -12 88.5t-56.5 96t-96 67.5t-82 29t-63.5 8l-39 2q-100 0 -180 -36t-134.5 -95t-83.5 -134t-29 -149q0 -66 23 -128 t62 -100.5t60.5 -52.5t40.5 -23.5t49 -20t68 -17.5t82 -7q82 0 165.5 26t146.5 69l19 -27q-122 -88 -201.5 -98t-121.5 -10q-46 0 -79.5 5t-53 9.5t-46.5 14.5q-21 6 -43.5 16t-51 26t-72.5 57.5t-62.5 87.5t-23 62t-9.5 39q-6 38 -6 75q0 58 15 115t37 96.5t38 60 t50.5 54.5t92 66.5t121.5 47.5t130 15q75 0 142.5 -19t117.5 -53.5t80.5 -77.5t45.5 -92t15 -100q0 -61 -20.5 -118t-61 -101.5t-93.5 -68.5q-48 -19 -99 -19q-42 0 -65.5 17.5t-23.5 56.5v13z" />
<glyph unicode="A" horiz-adv-x="598" d="M291 645l-133 -358h268zM449 223h-314l-86 -223h-72l275 711h84l273 -711h-74z" />
<glyph unicode="B" horiz-adv-x="510" d="M223 0h-157v711h151q70 0 125.5 -28.5t73 -75.5t17.5 -84q0 -18 -1 -27t-8 -33.5t-17.5 -38.5t-21.5 -23.5t-24 -17.5q37 -15 62 -40t36 -57.5t11 -68.5q0 -20 -1 -30t-11 -51t-43 -75t-80.5 -47.5t-111.5 -13.5zM133 643v-239h40q60 0 96.5 7.5t64 35t27.5 82.5 q0 34 -17 61q-17 23 -34.5 31.5t-33 13t-34 7t-61.5 2.5h-27zM133 336v-268l36 -1h26l20 -1q72 0 122.5 22.5t60.5 87.5l2 27q0 25 -7 46.5t-19.5 36t-21 21t-20.5 11.5q-35 20 -115 20l-45 -1z" />
<glyph unicode="C" horiz-adv-x="752" d="M717 527h-84q-52 66 -104.5 97.5t-127.5 31.5l-40 -2q-71 -8 -129 -48t-93 -107.5t-35 -139.5q0 -50 16 -97q14 -47 43.5 -87.5t65 -66.5t82.5 -42q41 -12 84 -12q69 0 123 26.5t111 95.5h82q-28 -58 -78.5 -103t-110 -66t-123.5 -21q-68 0 -130 22t-114.5 67.5t-78 94.5 t-35.5 83t-10 73l-1 31q0 82 30 150.5t83 117.5t119.5 74.5t134.5 25.5q46 0 82 -9t55 -17.5t50.5 -26.5t69 -56t63.5 -89z" />
<glyph unicode="D" horiz-adv-x="668" d="M252 0h-186v711h213q46 0 85.5 -7.5t69.5 -21t48.5 -25.5t44.5 -34.5t47 -56.5q30 -43 48 -101q16 -61 16 -114q0 -42 -10.5 -91t-42.5 -100.5t-78.5 -89t-101.5 -54t-153 -16.5zM285 643h-150v-577h166q76 0 133 34t82.5 80.5t35 78.5t9.5 69l1 27q0 84 -32.5 150.5 t-78.5 93t-84 35.5t-82 9z" />
<glyph unicode="E" horiz-adv-x="502" d="M436 641h-299v-248h299v-71h-299v-254h299v-68h-370v711h370v-70z" />
<glyph unicode="F" horiz-adv-x="484" d="M135 322v-322h-69v711h352v-70h-283v-248h283v-71h-283z" />
<glyph unicode="G" horiz-adv-x="787" d="M674 277h-360v63h442q-13 -128 -59.5 -190t-80.5 -87t-60 -38t-67 -26t-96 -13q-70 0 -134 25.5t-100 60.5t-56 62.5t-43 74.5t-29 117l-1 31q0 111 52 193.5t138.5 128.5t179.5 46q97 0 182 -48.5t137 -145.5h-86q-53 64 -108 95.5t-122 31.5q-28 0 -84.5 -11.5 t-107 -55.5t-71.5 -91t-28.5 -79.5t-7.5 -65.5q0 -58 22 -114t60.5 -96.5t79 -59.5t68 -25.5t57.5 -6.5q105 0 166.5 52t80.5 86t36 86z" />
<glyph unicode="H" horiz-adv-x="611" d="M477 324h-340v-324h-71v711h71v-318h340v318h68v-711h-68v324z" />
<glyph unicode="I" horiz-adv-x="201" d="M64 711h71v-711h-71v711z" />
<glyph unicode="J" horiz-adv-x="447" d="M313 262v449h70v-465v-20q0 -47 -4.5 -83t-26 -73t-54 -55t-53.5 -23.5t-46 -5.5h-6l-5 -1q-41 0 -72.5 14.5t-54 39.5t-32.5 56t-12.5 46.5t-2.5 32.5h68q3 -23 6 -30.5t6.5 -20t16 -27.5t33 -27.5t48.5 -12.5q8 0 18.5 1.5t41.5 11.5t46 54q15 37 15 106v18v15z" />
<glyph unicode="K" horiz-adv-x="537" d="M455 0l-240 314l-80 -95v-219h-71v711h71v-395l328 395h84l-287 -344l281 -367h-86z" />
<glyph unicode="L" horiz-adv-x="412" d="M137 68h250v-68h-321v711h71v-643z" />
<glyph unicode="M" horiz-adv-x="826" d="M137 629v-629h-67v711h104l246 -617l244 617h104v-711h-69v629l-250 -629h-62z" />
<glyph unicode="N" horiz-adv-x="668" d="M64 711h84l389 -625l-8 625h71v-711h-84l-391 627l8 -627h-69v711z" />
<glyph unicode="O" horiz-adv-x="787" d="M29 359q0 38 8 74t29.5 87t73.5 101.5t120 77.5t138 27q34 0 83 -9.5t92 -36.5t64 -45.5t40 -44.5t34 -53.5t30.5 -73.5t15.5 -111l-1 -30q-9 -96 -59 -172.5t-130.5 -120t-175.5 -43.5q-102 0 -185 51t-130 136t-47 186zM104 359q0 -81 38 -151.5t89 -101.5t75 -38 t41.5 -11t43.5 -4q53 0 105 21.5t93.5 60t65 87.5t29.5 104l1 25q0 45 -13.5 91.5t-41 87.5t-66 70.5t-83 43t-88.5 13.5q-55 0 -107.5 -22t-93.5 -64.5t-64 -94.5q-12 -30 -18 -57.5t-6 -59.5z" />
<glyph unicode="P" horiz-adv-x="506" d="M129 299v-299h-70v711h164q56 0 104 -8q42 -9 75 -39q34 -26 54 -69.5t20 -88.5v-6l-1 -6q0 -55 -40 -107t-93 -71t-129 -19l-20 1h-26zM129 641v-272h101l54 3q14 2 22 4.5t19.5 8.5t21.5 12.5t21.5 20.5t18.5 34t9 31.5t2 26.5q0 41 -19.5 72.5t-54.5 46.5 q-39 13 -126 13h-39z" />
<glyph unicode="Q" horiz-adv-x="787" d="M529 88q-19 19 -45 42t-46 42q-35 30 -76.5 48.5t-89.5 18.5q-62 0 -133 -32q41 -67 93.5 -104.5t124.5 -47.5l36 -2q34 0 66 8t70 27zM588 129q14 15 28 34t29.5 45.5t24 56t11.5 51.5t3 45q0 57 -22.5 110.5t-61 95.5t-90.5 66.5t-114 24.5q-45 0 -88.5 -14.5t-81 -43 t-66 -67t-42.5 -83.5t-14 -90q0 -39 11 -89q85 35 157 35q82 0 130.5 -25.5t64.5 -38.5t27 -22.5t22 -19.5l38 -36zM641 86q13 -6 29 -12.5t36.5 -11.5t57.5 -5v-61l-27 -1q-41 0 -78.5 13t-72.5 35q-45 -28 -91 -42.5t-93 -14.5q-65 0 -126.5 20.5t-105.5 55.5t-77 84.5 t-44 90t-15 64.5t-4 53q0 45 8.5 78.5t15.5 52t22 49.5t48 68t73.5 66t90 43t100.5 14q63 0 105 -14.5t69 -28.5t64 -41.5t71 -78.5t46 -110.5t12 -102.5q0 -51 -12.5 -97.5t-38.5 -88t-63 -77.5z" />
<glyph unicode="R" horiz-adv-x="557" d="M253 641h-24h-104v-641h-68v711h189q65 0 106 -11q46 -10 81 -41t49.5 -61.5t21 -53.5t6.5 -44v-16q0 -39 -13.5 -77.5t-48.5 -77.5t-110 -52l174 -277h-84l-211 344h30h13l12 -1q67 0 115.5 33.5t48.5 112.5l-2 23q-4 38 -26.5 69t-55.5 46q-36 14 -99 14z" />
<glyph unicode="S" horiz-adv-x="465" d="M27 203h69q5 -46 19.5 -79t39.5 -46.5t38.5 -16.5t32.5 -3q31 0 58.5 12.5t47.5 36.5q29 41 29 96q0 24 -6 47q-11 33 -39.5 54.5t-66.5 33.5l-77 25q-114 45 -123 147l-1 22q0 37 14 75.5t35.5 60t43.5 34.5q13 6 22 9.5t29 8.5t44 5q37 0 77 -14q53 -23 75 -68.5 t28 -107.5h-66q-12 100 -53.5 110.5t-59.5 10.5q-24 0 -52 -11q-25 -12 -47 -38.5t-22 -71.5t26.5 -70t66.5 -40l86 -30q48 -18 77.5 -40t45 -61t15.5 -79q0 -44 -12.5 -78.5t-24 -53.5t-34 -45t-62 -39t-75.5 -13q-56 0 -100 28t-71 78.5t-27 110.5z" />
<glyph unicode="T" horiz-adv-x="365" d="M359 641h-140v-641h-71v641h-142v70h353v-70z" />
<glyph unicode="U" horiz-adv-x="564" d="M439 711h71v-451q0 -129 -51 -201.5t-176 -72.5q-58 0 -106.5 21t-72.5 55.5t-31.5 58.5t-10 37.5t-4.5 31.5l-3 70v451h70v-428v-20q0 -49 5 -74q4 -30 18.5 -55t35.5 -41.5t41 -23t32.5 -8.5t27.5 -2q40 0 75 19.5t52 52.5q17 28 21 50.5t5 41.5t1 41v19v428z" />
<glyph unicode="V" horiz-adv-x="557" d="M303 0h-57l-266 711h71l224 -606l227 606h68z" />
<glyph unicode="W" horiz-adv-x="813" d="M230 129l145 582h64l143 -582l178 582h68l-221 -711h-56l-145 580l-142 -580h-59l-219 711h69z" />
<glyph unicode="X" horiz-adv-x="568" d="M484 0l-199 303l-203 -303h-84l246 357l-240 354h86l195 -295l195 295h86l-242 -354l248 -357h-88z" />
<glyph unicode="Y" horiz-adv-x="479" d="M422 711h78l-229 -449v-262h-68v262l-226 449h80l181 -369z" />
<glyph unicode="Z" horiz-adv-x="457" d="M20 0v66l332 575h-313v70h393v-66l-332 -577h339v-68h-419z" />
<glyph unicode="[" horiz-adv-x="264" d="M135 652v-795h92v-56h-163v910h163v-59h-92z" />
<glyph unicode="\" horiz-adv-x="277" d="M59 711l244 -803h-61l-242 803h59z" />
<glyph unicode="]" horiz-adv-x="264" d="M199 -199h-162v56h94v795h-94v59h162v-910z" />
<glyph unicode="^" horiz-adv-x="1000" d="M275 439h-70l260 274h68l260 -274h-70l-223 223z" />
<glyph unicode="_" d="M500 -234h-500v46h500v-46z" />
<glyph unicode="`" d="M209 779l102 -170h-45l-131 170h74z" />
<glyph unicode="a" horiz-adv-x="631" d="M576 0h-68l2 86q-35 -50 -87 -75t-115 -25q-51 0 -90 14t-60 27t-51.5 39.5t-55 80.5t-24.5 119q0 61 25 116.5t65 92.5t89 56t104 19q40 0 75.5 -11t67.5 -33t57 -55l-2 86h68v-537zM510 271q0 55 -29 106t-75 79.5t-100 28.5l-19 -1q-41 -4 -76 -24q-33 -17 -59.5 -49 t-39 -69t-12.5 -78v-18q0 -25 7.5 -48.5t29.5 -58t68 -61.5t100 -27q56 0 103.5 31t74.5 82.5t27 106.5z" />
<glyph unicode="b" horiz-adv-x="631" d="M121 264q0 -54 17.5 -85.5t25 -42.5t21 -25t48 -37t89.5 -23q54 0 102 28.5t76.5 78t28.5 102.5v6v6q0 50 -23.5 97.5t-65.5 78t-94 36.5l-21 1q-41 0 -78 -17.5t-66.5 -50.5t-43.5 -72q-16 -39 -16 -81zM53 0v711h70v-160l-4 -104q96 103 210 103q35 0 76 -10.5 t78.5 -37.5t63.5 -64t40.5 -84t14.5 -92q0 -69 -33 -130.5t-78 -91.5t-76 -41t-67 -11l-27 -1q-56 0 -105 23t-95 70v-80h-68z" />
<glyph unicode="c" horiz-adv-x="605" d="M563 371h-79q-65 116 -172 116q-29 0 -56 -7q-46 -9 -82 -42q-36 -30 -55 -75t-19 -93q0 -70 38 -129t76.5 -71.5t55.5 -15.5t32 -3q54 0 104 27q25 15 41 34.5t22.5 29t14.5 26.5h77q-16 -42 -45 -79t-53.5 -54t-42 -25.5t-46.5 -16.5t-66 -8q-55 0 -104 20t-89 57 t-64 90.5t-24 115.5q0 58 21 108t59 90.5t90.5 63.5t107.5 23q63 0 111.5 -21.5t83.5 -62t63 -98.5z" />
<glyph unicode="d" horiz-adv-x="631" d="M510 451q0 17 -1 62t-1 59v139h68v-711h-66v80q-40 -48 -92.5 -71.5t-108.5 -23.5q-71 0 -135 35t-105.5 99t-41.5 143q0 44 9.5 81t40.5 87t93 85t137 35q39 0 75.5 -11.5t68 -32.5t59.5 -55zM510 264q0 52 -23 99.5t-65.5 80t-95.5 40.5l-24 1q-57 0 -103 -30.5 t-72.5 -81t-26.5 -107.5q0 -40 15.5 -79t45.5 -71q27 -31 66 -48t80 -17q55 0 101.5 30.5t74 80t27.5 102.5z" />
<glyph unicode="e" horiz-adv-x="605" d="M100 305h406q-21 86 -70.5 133.5t-134.5 47.5q-59 0 -100.5 -23t-66 -64t-34.5 -94zM582 246h-484q6 -37 6.5 -40t8 -28t29.5 -51.5t53 -44.5q29 -19 56.5 -24t50.5 -5q53 0 102 25q50 29 82 92h78q-25 -57 -61 -98t-86 -63.5t-110 -22.5q-77 0 -142 38t-102.5 104 t-37.5 142q0 81 38 145.5t102.5 100t142.5 35.5h22t49 -6.5t89 -42.5t77 -90q18 -31 27.5 -72t9.5 -94z" />
<glyph unicode="f" horiz-adv-x="275" d="M262 477h-112v-477h-66v477h-72v60h68q0 64 20 107q16 39 46 52t57.5 18t60.5 5v-63q-25 0 -41 -3t-34.5 -12t-28.5 -35.5t-10 -68.5h112v-60z" />
<glyph unicode="g" horiz-adv-x="625" d="M100 269v-7q0 -19 2.5 -33.5t16 -49t42.5 -63.5q26 -29 64.5 -46t79.5 -17q52 0 99 30.5t74.5 80t27.5 102.5q0 42 -16 82t-43 71t-63.5 49t-80.5 18q-41 0 -80 -17q-37 -18 -64.5 -47t-39.5 -58.5t-15.5 -48t-3.5 -42.5v-4zM66 -43h80q16 -34 34 -53t52 -33 q41 -13 71 -13l31 3q34 5 59 16.5t47.5 30.5t38.5 48t18 45.5t5.5 43.5t3.5 51q-12 -17 -26.5 -31.5t-39 -33t-62 -31t-77.5 -12.5q-68 0 -132 35.5t-93.5 83t-40 82.5t-10.5 75q0 62 16 99t20.5 46.5t16.5 26t42.5 46t80 50t102.5 20.5q61 0 112.5 -25t90.5 -78v88h66v-447 q0 -67 -16.5 -125.5t-75.5 -116t-171 -57.5q-58 0 -106.5 19t-85 57.5t-51.5 89.5z" />
<glyph unicode="h" horiz-adv-x="559" d="M504 309v-309h-68v303q0 83 -35.5 131t-117.5 48q-43 0 -80 -18t-55 -48.5t-21.5 -56.5t-4.5 -38t-1 -39v-20v-262h-66v711h66v-236q48 51 84.5 59.5t55 11.5t36.5 3q62 0 134.5 -44t72.5 -196z" />
<glyph unicode="i" horiz-adv-x="182" d="M125 537v-537h-68v537h68zM57 711h68v-111h-68v111z" />
<glyph unicode="j" horiz-adv-x="182" d="M57 -12v549h68v-539v-37q-3 -16 -5 -35t-6 -30q-8 -35 -48 -56q-17 -13 -49 -13h-6l-9 1h-12v65q27 0 43.5 8t20 21.5t3.5 40.5v25zM57 711h68v-111h-68v111z" />
<glyph unicode="k" horiz-adv-x="414" d="M354 0l-229 279v-279h-68v711h68v-424l193 250h80l-195 -250l236 -287h-85z" />
<glyph unicode="l" horiz-adv-x="182" d="M125 711v-711h-68v711h68z" />
<glyph unicode="m" horiz-adv-x="932" d="M121 0h-66v537h66v-60q69 70 168 70h16q18 0 32 -2.5t40 -11t54 -29t46 -51.5q32 45 84 71t109 26t103.5 -25.5t75 -80.5t28.5 -135v-309h-66v303q0 179 -151 179q-43 0 -79 -18t-53 -46.5t-21.5 -54.5t-4.5 -65v-36v-262h-66v301q0 87 -34.5 134t-118.5 47 q-43 0 -80 -18t-55 -48.5t-21.5 -56.5t-4.5 -38t-1 -39v-20v-262z" />
<glyph unicode="n" horiz-adv-x="559" d="M504 309v-309h-68v301q0 57 -8 90t-42 62t-93 29l-29 -2q-20 0 -39 -6.5t-45 -23.5t-42.5 -54t-16.5 -110v-24v-262h-66v537h66v-60q69 72 171 72q46 0 97 -20q115 -52 115 -220z" />
<glyph unicode="o" horiz-adv-x="605" d="M25 268q0 59 21 108.5t62 92t92.5 64t104.5 21.5l21 -1q74 -8 117 -38t66 -56t47 -71.5t24 -114.5q0 -64 -24.5 -119.5t-71.5 -96.5q-34 -33 -80 -52t-101 -19l-13 -1q-54 0 -89.5 18t-58 34.5t-38.5 36.5q-36 39 -57.5 92t-21.5 102zM98 270q0 -33 8 -63.5t29.5 -67.5 t70 -62t98.5 -25q52 0 99 24.5t76 74t29 119.5q0 51 -17.5 93t-45 68.5t-66.5 42.5q-24 8 -41.5 10.5t-34.5 2.5q-39 0 -74.5 -13.5t-66.5 -41.5t-47.5 -69.5t-16.5 -92.5z" />
<glyph unicode="p" horiz-adv-x="631" d="M121 271q0 -40 16 -81t44.5 -72.5t65.5 -49t77 -17.5q56 0 92 22t54.5 41.5t31.5 45.5q27 48 27 104q0 38 -13 80q-15 39 -40.5 69t-49.5 43.5t-44 19.5t-40 8l-19 1q-39 0 -74.5 -16.5t-65.5 -48t-46 -71t-16 -78.5zM123 -174h-70v711h66v-88q30 48 82 74t116 26 q71 0 136.5 -32.5t107 -97.5t41.5 -153q0 -61 -24 -115.5t-63 -89.5t-90 -55.5t-102 -20.5q-57 0 -89 15.5t-44.5 23t-31 23t-37.5 39.5l1 -59l1 -58v-143z" />
<glyph unicode="q" horiz-adv-x="631" d="M510 271q0 55 -29 106t-75 79.5t-100 28.5l-19 -1q-41 -4 -76 -24q-33 -17 -59.5 -49t-39 -69t-12.5 -78v-18q0 -25 7.5 -48.5t29.5 -58t68 -61.5t100 -27q56 0 103.5 31t74.5 82.5t27 106.5zM510 451v86h66v-711h-68v147v60t2 47q-38 -48 -91 -71.5t-110 -23.5 q-72 0 -136.5 34t-105 98.5t-40.5 148.5q0 14 2 31t6 37t22.5 61t57 77.5t77.5 52t63.5 20.5t52.5 5q56 0 109 -24.5t93 -74.5z" />
<glyph unicode="r" horiz-adv-x="250" d="M123 324v-324h-68v537h64v-62q26 35 57 52.5t68 17.5v-74q-49 0 -90 -37q-19 -22 -25 -48t-6 -62z" />
<glyph unicode="s" horiz-adv-x="389" d="M21 170h71q0 -40 15.5 -68t42.5 -41q25 -10 43 -10q25 0 48 12.5t34.5 33t11.5 43.5q0 31 -20.5 58t-55.5 40l-68 26q-33 12 -55.5 31.5t-33 49t-10.5 53.5q0 16 2.5 28.5t13 36t44.5 56t99 32.5q33 0 70 -16q40 -15 58.5 -49.5t22.5 -83.5h-75q-8 62 -52 77l-29 3 q-33 0 -57 -21t-24 -60q0 -18 6.5 -33.5t25 -29t44.5 -22.5l49 -16q17 -5 21.5 -7t30.5 -15t47.5 -49.5t21.5 -80.5q0 -40 -20 -78t-60.5 -60.5t-90.5 -22.5q-49 0 -82.5 18.5t-47.5 38t-20 32t-11.5 32t-7.5 34t-2 28.5z" />
<glyph unicode="t" horiz-adv-x="273" d="M172 469v-469h-70v469h-102v68h102v174h70v-174h101v-68h-101z" />
<glyph unicode="u" horiz-adv-x="559" d="M53 227v310h68v-305q0 -20 2 -39.5t6.5 -44t36.5 -61t107 -36.5l40 4q34 6 63 29t40.5 48.5t16.5 57.5l3 60v23v264h68v-537h-68v59q-66 -73 -158 -73q-27 0 -87.5 13.5t-89 59.5t-38.5 85t-10 83z" />
<glyph unicode="v" horiz-adv-x="477" d="M410 537h74l-218 -537h-65l-209 537h72l174 -433z" />
<glyph unicode="w" horiz-adv-x="693" d="M322 537h51l123 -402l131 402h72l-181 -537h-45l-125 408l-125 -408h-45l-180 537h70l131 -402z" />
<glyph unicode="x" horiz-adv-x="414" d="M168 279l-160 258h76l125 -203l135 203h78l-174 -258l174 -279h-78l-139 225l-144 -225h-75z" />
<glyph unicode="y" horiz-adv-x="461" d="M119 -174l72 176l-207 535h79l166 -435l173 435h80l-289 -711h-74z" />
<glyph unicode="z" horiz-adv-x="402" d="M92 68h289v-68h-371v64l279 409h-248v64h324v-74z" />
<glyph unicode="{" d="M418 721v-51q-24 0 -37 -1t-32.5 -4.5t-32.5 -16t-20 -38t-7 -65.5v-117q0 -48 -6 -78t-27 -53t-63 -37q60 -20 78 -58t18 -110v-117q0 -34 5 -62q6 -23 18 -38q14 -14 35.5 -18.5t56.5 -4.5h14v-53q-80 0 -118.5 13.5t-54 51.5t-15.5 116v118q0 53 -13 81.5t-42 41.5 q-31 11 -78 11h-11v53h10q49 0 78.5 12.5t42.5 41.5t13 83v117q0 79 15.5 117.5t54 51.5t118.5 13z" />
<glyph unicode="|" d="M277 -234h-52v998h52v-998z" />
<glyph unicode="}" d="M84 670v51q79 0 117.5 -13.5t54 -51.5t15.5 -117v-117q0 -56 14 -83q12 -29 41.5 -41.5t79.5 -12.5h10v-53h-11q-48 0 -78 -11.5t-43 -39t-13 -83.5v-118q0 -63 -7.5 -96t-29.5 -52q-20 -20 -54.5 -26.5t-95.5 -6.5v53h14q47 0 70.5 9.5t33 35.5t9.5 78v117q0 49 6 79 t27 52t63 37q-43 14 -63.5 36.5t-26.5 52.5t-6 79v117q0 56 -10 80.5t-36 35.5q-26 9 -81 9z" />
<glyph unicode="~" horiz-adv-x="1000" d="M734 676h57q0 -134 -60 -167.5t-102 -33.5q-34 0 -69.5 15.5t-59.5 40.5l-21 28l-28 34q-6 6 -11 10t-23 11.5t-44 7.5q-24 0 -51.5 -10t-41.5 -47.5t-14 -87.5h-57q0 163 72 180.5t92 17.5q42 0 81 -20.5t69.5 -64.5t66.5 -55q22 -5 36 -5q38 0 63 19q30 20 37.5 51 t7.5 76z" />
<glyph unicode="&#xa0;" />
<glyph unicode="&#xa1;" horiz-adv-x="287" d="M178 0h-69v525h69v-525zM178 580h-69v131h69v-131z" />
<glyph unicode="&#xa2;" horiz-adv-x="564" d="M547 443h-72q-14 36 -29 59t-46.5 48.5t-94.5 25.5l-30 -2q-38 -5 -69.5 -25t-54 -50.5t-34.5 -67t-12 -76.5q0 -33 9.5 -68t25.5 -60q15 -27 42 -50t60 -34t61 -11q53 0 97 28q27 19 44 44t31 64h72q-21 -60 -49 -100t-69 -63t-103 -33v-111h-64v111q-55 14 -88 30.5 t-67.5 55.5t-54 91t-19.5 105q0 26 4.5 51t17.5 62t42.5 72t54 52t47.5 25q18 8 63 19v101h64v-99q62 -11 103.5 -33.5t70 -60.5t47.5 -100z" />
<glyph unicode="&#xa3;" horiz-adv-x="564" d="M180 396h240v-70h-188q39 -75 39 -140q0 -61 -35 -123l32 -1l35 -1q83 0 123 29q45 38 45 109q0 26 -6 61h68q6 -33 6 -63q0 -53 -21.5 -94.5t-52.5 -63.5t-69 -31q-42 -8 -85 -8h-252v63h109q40 53 40 113q0 63 -52 152h-123v68h71q-21 63 -21 106l3 31q9 57 42 103 t85 67q45 21 99 21q53 0 98 -21t72.5 -63t40.5 -101h-62q-13 43 -33 70t-52 40t-68 13q-39 0 -76 -17q-36 -19 -52.5 -48.5t-22 -46.5t-5.5 -38q0 -34 7 -58t10.5 -33.5t10.5 -24.5z" />
<glyph unicode="&#xa4;" horiz-adv-x="605" d="M145 559l-100 99l31 33l100 -101q60 44 130 44q69 0 126 -44l99 101l32 -33l-100 -99q43 -59 43 -126q0 -65 -43 -126l100 -102l-32 -31l-99 99q-60 -42 -128 -42t-128 42l-100 -99l-31 31l100 102q-43 58 -43 125q0 69 43 127zM305 590q-17 0 -30 -3t-36.5 -13 t-44.5 -31t-34.5 -50t-13.5 -64v-11q7 -63 54.5 -103.5t109.5 -40.5l4 1h6q39 5 71.5 27.5t52 57t19.5 74.5t-21.5 77t-58 58t-78.5 21z" />
<glyph unicode="&#xa5;" horiz-adv-x="564" d="M465 705h78l-127 -242h90v-55h-119l-43 -82h162v-55h-190v-271h-70v271h-189v55h162l-41 82h-121v55h91l-127 242h81l181 -365z" />
<glyph unicode="&#xa6;" d="M277 328h-52v371h52v-371zM277 -170h-52v369h52v-369z" />
<glyph unicode="&#xa7;" d="M82 63h68q0 -71 32.5 -90t62.5 -19q9 0 19 2t20.5 5.5t20.5 11.5t19 22.5t9 37.5l-3 24q-4 24 -21 41l-53 41l-106 64q-49 30 -72 66q-25 35 -25 76q0 40 25 75q22 35 72 64q-50 44 -50 95l2 21q0 19 7.5 37t26.5 42.5t59 37.5q30 8 57 8q29 0 53 -7t61.5 -33.5 t37.5 -123.5h-62q0 69 -43 93q-20 14 -50 14q-24 0 -43 -10t-29 -29t-10 -39l1 -10q0 -51 68 -90l100 -58q52 -30 82 -70q29 -43 29 -84q0 -36 -23.5 -71t-73.5 -64q53 -53 53 -115q0 -37 -22 -68t-63 -50q-36 -15 -77 -15q-47 0 -85.5 19.5t-56 57.5t-17.5 91zM191 258 l122 -78q62 45 62 94q0 55 -76 103l-110 66q-33 -15 -49.5 -37.5t-16.5 -47.5q0 -29 18 -53q18 -27 50 -47z" />
<glyph unicode="&#xa8;" d="M193 721v-80h-68v80h68zM375 721v-80h-70v80h70z" />
<glyph unicode="&#xa9;" horiz-adv-x="832" d="M416 711q73 0 121 -20.5t77 -40t67 -58t65 -102.5t27 -136q0 -96 -48 -178.5t-130.5 -131t-178.5 -48.5q-80 0 -151 34.5t-122.5 95t-68 120.5t-16.5 107q0 93 48 175.5t130 133.5q86 49 180 49zM416 672q-85 0 -159.5 -44t-116.5 -117.5t-42 -157.5q0 -19 3 -40.5 t12 -55.5t39.5 -79t61.5 -68.5t53.5 -35.5t60 -25.5t88.5 -13.5q87 0 160 43.5t115.5 116t42.5 159.5q0 65 -23.5 120.5t-68.5 103.5q-46 45 -102.5 69.5t-123.5 24.5zM580 447h-57q-6 25 -21 43.5t-31 25.5t-30.5 10t-28.5 3q-61 0 -90 -53.5t-29 -123.5q0 -56 19 -96.5 t47 -59t61 -18.5q37 0 67.5 24.5t41.5 68.5h57q-4 -43 -28.5 -74.5t-61.5 -49t-78 -17.5q-76 0 -132.5 58.5t-56.5 166.5q0 73 29 122.5t72.5 73.5t91.5 24q60 0 106 -34t52 -94z" />
<glyph unicode="&#xaa;" horiz-adv-x="473" d="M432 334h-51v59q-26 -33 -64 -51q-40 -17 -86 -17q-50 0 -100.5 23t-80 67.5t-29.5 104.5q0 57 30.5 103.5t78.5 70.5t101 24q43 0 82.5 -17.5t67.5 -52.5v61h51v-375zM381 523q0 40 -20 73q-18 34 -53 55.5t-75 21.5l-16 -1q-43 -5 -75 -25q-32 -22 -50 -56.5t-18 -72.5 v-12q0 -16 6.5 -34t23.5 -42.5t51 -41.5q34 -19 74 -19q42 0 76.5 21.5t55 58.5t20.5 74z" />
<glyph unicode="&#xab;" horiz-adv-x="455" d="M121 268l121 -157h-66l-119 157l119 158h66zM271 268l120 -157h-67l-121 157l121 158h67z" />
<glyph unicode="&#xac;" horiz-adv-x="832" d="M662 369h-539v51h586v-246h-47v195z" />
<glyph unicode="&#xae;" horiz-adv-x="832" d="M416 711q96 0 178.5 -48t130.5 -130.5t48 -178.5t-48 -178.5t-130.5 -131t-178.5 -48.5q-80 0 -151 34.5t-122.5 95t-68 121t-16.5 105.5q0 93 48.5 176.5t131.5 133t178 49.5zM416 672q-86 0 -159 -43.5t-116 -118t-43 -158.5q0 -40 14.5 -93t60.5 -108t108.5 -85.5 t134.5 -30.5q88 0 160.5 42.5t115 116t42.5 158.5q0 86 -42 160t-115 117t-161 43zM338 152h-63v412h153q77 0 123.5 -23.5t46.5 -89.5q0 -42 -27.5 -70.5t-70.5 -36.5l92 -192h-71l-87 182h-96v-182zM338 523v-148l33 -1l38 -1q57 0 90.5 16t33.5 60t-35.5 60t-91.5 16 l-36 -1z" />
<glyph unicode="&#xaf;" d="M500 715h-500v49h500v-49z" />
<glyph unicode="&#xb0;" horiz-adv-x="400" d="M62 593q0 55 39.5 95t96.5 40q56 0 95.5 -39.5t39.5 -95.5t-39.5 -96t-95.5 -40q-55 0 -96 39q-40 42 -40 97zM116 593q0 -33 24 -58t58 -25t58 24t24 59q0 32 -24 57t-58 25t-58 -24t-24 -58z" />
<glyph unicode="&#xb1;" horiz-adv-x="832" d="M123 400h270v170h48v-170h268v-46h-268v-170h-48v170h-270v46zM709 25h-586v47h586v-47z" />
<glyph unicode="&#xb2;" horiz-adv-x="373" d="M104 324h228v-41h-289v41l166 143q17 15 31.5 30t26.5 27.5t18 39.5l3 22q0 26 -15 49t-38 33.5t-48 10.5q-41 0 -68 -25q-32 -27 -32 -76l1 -6v-6h-45q0 94 53 122.5t93 28.5q30 0 61 -11q15 -7 26 -14t24 -21.5t23 -38t10 -48.5l-1 -14q0 -57 -72 -113z" />
<glyph unicode="&#xb3;" horiz-adv-x="373" d="M35 412h47q0 -17 4 -30.5t10.5 -24.5t17 -20.5t27 -18t43.5 -8.5q28 0 53 13.5t37.5 37t12.5 50.5q0 54 -43 79q-27 18 -85 18h-18v35h14q31 0 50 4t34 22t15 45q0 21 -15.5 43.5t-56.5 22.5l-18 -2q-27 -4 -39.5 -23.5t-15.5 -47.5h-41q6 68 55 94q28 17 62 17 q33 0 61 -17q25 -13 40 -39t15 -53q0 -24 -10.5 -40.5t-34.5 -35.5q37 -20 56.5 -48t19.5 -67q0 -42 -19 -74.5t-51 -50.5t-79 -18q-37 0 -64 10q-44 19 -61.5 49t-22.5 78z" />
<glyph unicode="&#xb4;" d="M291 779h74l-131 -170h-45z" />
<glyph unicode="&#xb5;" horiz-adv-x="543" d="M14 -207h-67l153 727h68l-61 -290q-3 -16 -5 -31t-2 -30q0 -33 11 -62t34 -45q23 -18 61 -18l11 1q57 0 98 51.5t64 151.5l59 272h68l-80 -375l-6 -25l-5 -25l-1 -14q0 -33 41 -33l12 1l-12 -55q-20 -4 -40 -4q-33 0 -50 17q-17 20 -17 59q-24 -37 -63.5 -57.5 t-83.5 -20.5q-40 0 -75 20t-56 56z" />
<glyph unicode="&#xb6;" d="M232 723h227v-35h-63v-688h-39v688h-91v-688h-41v383q-28 3 -35.5 4.5t-27.5 6t-31 9.5t-33 22t-39.5 54t-17.5 74q0 52 19 81t37 44.5t52 30t83 14.5z" />
<glyph unicode="&#xb7;" horiz-adv-x="590" d="M160 426q16 41 54 65t79 24q42 0 70.5 -18t44.5 -38t23 -41.5t7 -47.5q0 -15 -2 -27.5t-11.5 -34t-23.5 -35t-26.5 -21.5t-31 -16t-48.5 -8l-27 2q-52 9 -84.5 51t-32.5 94q0 27 9 51z" />
<glyph unicode="&#xb8;" d="M219 0h31v-53q20 0 36 -2.5t36.5 -9t32.5 -31.5q12 -18 12 -41q0 -30 -23 -59t-86 -29q-40 0 -125 22v37l34 -8l42 -8q16 -4 40 -4q58 0 64 38v9q0 50 -76 50l-18 -1v90z" />
<glyph unicode="&#xb9;" horiz-adv-x="373" d="M86 709h131v-426h-49v389h-82v37z" />
<glyph unicode="&#xba;" horiz-adv-x="455" d="M20 521q0 41 16 76t45 63.5t68.5 45t80.5 16.5l16 -1q26 0 48.5 -8.5t57 -30.5t59.5 -65.5t25 -91.5q0 -45 -20 -85t-53 -67q-15 -14 -31.5 -21.5t-29 -12.5t-24 -7.5t-27.5 -4.5l-24 -3h-5h-5q-56 0 -98 29q-46 28 -66 63t-26.5 57t-6.5 48zM74 521q0 -47 22.5 -83 t55.5 -51q33 -17 75 -17q40 0 75.5 18t57 52.5t21.5 82.5q0 19 -3 33.5t-14 39t-31 40.5q-19 18 -47 28t-57 10q-38 0 -75 -17q-36 -19 -58 -53.5t-22 -82.5z" />
<glyph unicode="&#xbb;" horiz-adv-x="455" d="M133 426l119 -158l-119 -157h-69l122 157l-122 158h69zM279 426l121 -158l-121 -157h-64l119 157l-119 158h64z" />
<glyph unicode="&#xbc;" horiz-adv-x="879" d="M84 709h125v-396h-47v363h-78v33zM631 725h57l-440 -739h-59zM850 76h-49v-76h-43v76h-209v35l203 285h49v-285h49v-35zM762 352l-168 -241h166z" />
<glyph unicode="&#xbd;" horiz-adv-x="879" d="M84 709h125v-396h-47v363h-78v33zM631 725h57l-440 -739h-59zM621 39h219v-39h-277v39l158 133q13 12 29.5 26.5t22.5 22.5q18 18 22 41l2 20q0 25 -13 47q-8 11 -17 18.5t-21 11.5q-20 11 -46 11q-38 0 -65 -22q-30 -27 -30 -84h-42q0 87 50.5 114t89.5 27 q31 0 58 -10.5t48 -31.5q14 -17 24 -38q8 -22 8 -41l-1 -14q-6 -57 -69 -108z" />
<glyph unicode="&#xbe;" horiz-adv-x="879" d="M33 434h45q0 -45 29.5 -70.5t68.5 -25.5q28 0 51.5 12.5t35.5 33.5t12 44t-11.5 45.5t-29 33t-41.5 13.5l-58 3v32h13q16 0 25.5 1t26.5 4t30.5 19.5t13.5 40.5q0 21 -14 38q-18 26 -54 26q-13 0 -18 -2q-53 -11 -53 -65h-41q6 62 43 81.5t70 19.5t57.5 -13.5t39.5 -37.5 t15 -50q0 -40 -43 -70q38 -21 53 -45q19 -27 19 -63q0 -38 -19.5 -69.5t-50.5 -49.5q-30 -15 -72 -15q-34 0 -68.5 12t-52 41.5t-22.5 75.5zM631 725h57l-440 -739h-59zM850 76h-49v-76h-43v76h-209v35l203 285h49v-285h49v-35zM762 352l-168 -241h166z" />
<glyph unicode="&#xbf;" horiz-adv-x="463" d="M189 580v131h71v-131h-71zM189 518h71q0 -33 -7.5 -59.5t-24 -53.5t-34 -48t-48.5 -48q-25 -28 -33.5 -43.5t-12.5 -28.5t-4 -26q0 -55 8.5 -78t29.5 -40q19 -18 36 -23.5t30 -7.5t26 -2l22 1q59 7 83 48t30 108h73q0 -41 -10.5 -77.5t-40.5 -83t-110 -64.5 q-21 -3 -28.5 -4t-23.5 -1q-92 0 -145.5 61t-53.5 147q0 73 22 101t31 37t21 20l36 34q13 12 26 31q31 39 31 100z" />
<glyph unicode="&#xc0;" horiz-adv-x="598" d="M291 645l-133 -358h268zM449 223h-314l-86 -223h-72l275 711h84l273 -711h-74zM252 951l102 -170h-45l-131 170h74z" />
<glyph unicode="&#xc1;" horiz-adv-x="598" d="M291 645l-133 -358h268zM449 223h-314l-86 -223h-72l275 711h84l273 -711h-74zM334 951h74l-131 -170h-45z" />
<glyph unicode="&#xc2;" horiz-adv-x="598" d="M291 645l-133 -358h268zM449 223h-314l-86 -223h-72l275 711h84l273 -711h-74zM293 910l-90 -129h-45l98 170h74l98 -170h-45z" />
<glyph unicode="&#xc3;" horiz-adv-x="598" d="M291 645l-133 -358h268zM449 223h-314l-86 -223h-72l275 711h84l273 -711h-74zM395 902h39q-17 -48 -38.5 -68t-48.5 -20l-26 4l-30 8l-28 8l-24 3q-32 0 -48 -34h-39q4 15 8 24t15.5 26.5t30 28t41.5 10.5q7 0 16 -1.5t38 -11.5t46 -10q28 0 48 33z" />
<glyph unicode="&#xc4;" horiz-adv-x="598" d="M291 645l-133 -358h268zM449 223h-314l-86 -223h-72l275 711h84l273 -711h-74zM236 893v-80h-68v80h68zM418 893v-80h-70v80h70z" />
<glyph unicode="&#xc5;" horiz-adv-x="598" d="M449 223h-314l-86 -223h-72l275 711h84l273 -711h-74zM291 645l-133 -358h268zM182 852q0 52 32.5 80.5t78.5 28.5t78.5 -28.5t32.5 -80.5q0 -53 -33 -82.5t-79 -29.5q-44 0 -77 29.5t-33 82.5zM225 852q0 -32 20.5 -50t47.5 -18q28 0 49 18t21 50t-20 50t-49 18 q-28 0 -48.5 -18t-20.5 -50z" />
<glyph unicode="&#xc6;" horiz-adv-x="885" d="M455 0v236h-275l-162 -236h-82l488 711h402v-70h-301v-248h299v-71h-299v-254h299v-68h-369zM461 641h-8l-226 -334h230z" />
<glyph unicode="&#xc7;" horiz-adv-x="752" d="M717 527h-84q-52 66 -104.5 97.5t-127.5 31.5l-40 -2q-71 -8 -129 -48t-93 -107.5t-35 -139.5q0 -50 16 -97q14 -47 43.5 -87.5t65 -66.5t82.5 -42q41 -12 84 -12q69 0 123 26.5t111 95.5h82q-28 -58 -78.5 -103t-110 -66t-123.5 -21q-68 0 -130 22t-114.5 67.5t-78 94.5 t-35.5 83t-10 73l-1 31q0 82 30 150.5t83 117.5t119.5 74.5t134.5 25.5q46 0 82 -9t55 -17.5t50.5 -26.5t69 -56t63.5 -89zM359 0h32v-53q20 0 36 -2.5t36.5 -8.5t32.5 -32q11 -17 11 -41q0 -30 -23 -59t-86 -29q-39 0 -125 22v37l31 -7l46 -9q7 -2 17.5 -3t21.5 -1 q58 0 64 38l1 10q0 49 -78 49l-17 -1v90z" />
<glyph unicode="&#xc8;" horiz-adv-x="502" d="M436 641h-299v-248h299v-71h-299v-254h299v-68h-370v711h370v-70zM217 951l101 -170h-45l-130 170h74z" />
<glyph unicode="&#xc9;" horiz-adv-x="502" d="M436 641h-299v-248h299v-71h-299v-254h299v-68h-370v711h370v-70zM299 951h74l-131 -170h-45z" />
<glyph unicode="&#xca;" horiz-adv-x="502" d="M436 641h-299v-248h299v-71h-299v-254h299v-68h-370v711h370v-70zM258 910l-90 -129h-45l98 170h74l98 -170h-45z" />
<glyph unicode="&#xcb;" horiz-adv-x="502" d="M436 641h-299v-248h299v-71h-299v-254h299v-68h-370v711h370v-70zM201 893v-80h-68v80h68zM383 893v-80h-70v80h70z" />
<glyph unicode="&#xcc;" horiz-adv-x="201" d="M64 711h71v-711h-71v711zM61 951l101 -170h-45l-131 170h75z" />
<glyph unicode="&#xcd;" horiz-adv-x="201" d="M64 711h71v-711h-71v711zM143 951h74l-131 -170h-45z" />
<glyph unicode="&#xce;" horiz-adv-x="201" d="M64 711h71v-711h-71v711zM102 910l-90 -129h-45l97 170h75l97 -170h-45z" />
<glyph unicode="&#xcf;" horiz-adv-x="201" d="M64 711h71v-711h-71v711zM45 893v-80h-68v80h68zM227 893v-80h-71v80h71z" />
<glyph unicode="&#xd0;" horiz-adv-x="674" d="M258 0h-186v326h-74v63h74v322h215q61 0 115.5 -15t100.5 -48t78 -80.5t43.5 -86.5t15.5 -68t4 -58q0 -43 -10.5 -94.5t-42 -102t-80 -88.5t-102 -54t-151.5 -16zM293 643h-150v-254h173v-63h-173v-260h164q31 0 54 4t59.5 19.5t71 51t53.5 84.5q12 26 17.5 50.5 t5.5 52.5v26q0 86 -31 150.5t-94.5 101.5t-149.5 37z" />
<glyph unicode="&#xd1;" horiz-adv-x="668" d="M64 711h84l389 -625l-8 625h71v-711h-84l-391 627l8 -627h-69v711zM434 902h39q-17 -48 -38.5 -68t-48.5 -20q-17 0 -55.5 11.5t-52.5 11.5q-32 0 -48 -34h-39q4 15 8 24t15.5 26.5t30 28t41.5 10.5q7 0 17 -2t38 -11.5t44 -9.5q29 0 49 33z" />
<glyph unicode="&#xd2;" horiz-adv-x="787" d="M29 359q0 38 8 74t29.5 87t73.5 101.5t120 77.5t138 27q34 0 83 -9.5t92 -36.5t64 -45.5t40 -44.5t34 -53.5t30.5 -73.5t15.5 -111l-1 -30q-9 -96 -59 -172.5t-130.5 -120t-175.5 -43.5q-102 0 -185 51t-130 136t-47 186zM104 359q0 -81 38 -151.5t89 -101.5t75 -38 t41.5 -11t43.5 -4q53 0 105 21.5t93.5 60t65 87.5t29.5 104l1 25q0 45 -13.5 91.5t-41 87.5t-66 70.5t-83 43t-88.5 13.5q-55 0 -107.5 -22t-93.5 -64.5t-64 -94.5q-12 -30 -18 -57.5t-6 -59.5zM352 951l101 -170h-45l-131 170h75z" />
<glyph unicode="&#xd3;" horiz-adv-x="787" d="M29 359q0 38 8 74t29.5 87t73.5 101.5t120 77.5t138 27q34 0 83 -9.5t92 -36.5t64 -45.5t40 -44.5t34 -53.5t30.5 -73.5t15.5 -111l-1 -30q-9 -96 -59 -172.5t-130.5 -120t-175.5 -43.5q-102 0 -185 51t-130 136t-47 186zM104 359q0 -81 38 -151.5t89 -101.5t75 -38 t41.5 -11t43.5 -4q53 0 105 21.5t93.5 60t65 87.5t29.5 104l1 25q0 45 -13.5 91.5t-41 87.5t-66 70.5t-83 43t-88.5 13.5q-55 0 -107.5 -22t-93.5 -64.5t-64 -94.5q-12 -30 -18 -57.5t-6 -59.5zM434 951h74l-131 -170h-45z" />
<glyph unicode="&#xd4;" horiz-adv-x="787" d="M29 359q0 38 8 74t29.5 87t73.5 101.5t120 77.5t138 27q34 0 83 -9.5t92 -36.5t64 -45.5t40 -44.5t34 -53.5t30.5 -73.5t15.5 -111l-1 -30q-9 -96 -59 -172.5t-130.5 -120t-175.5 -43.5q-102 0 -185 51t-130 136t-47 186zM104 359q0 -81 38 -151.5t89 -101.5t75 -38 t41.5 -11t43.5 -4q53 0 105 21.5t93.5 60t65 87.5t29.5 104l1 25q0 45 -13.5 91.5t-41 87.5t-66 70.5t-83 43t-88.5 13.5q-55 0 -107.5 -22t-93.5 -64.5t-64 -94.5q-12 -30 -18 -57.5t-6 -59.5zM393 910l-90 -129h-45l97 170h75l97 -170h-45z" />
<glyph unicode="&#xd5;" horiz-adv-x="787" d="M29 359q0 38 8 74t29.5 87t73.5 101.5t120 77.5t138 27q34 0 83 -9.5t92 -36.5t64 -45.5t40 -44.5t34 -53.5t30.5 -73.5t15.5 -111l-1 -30q-9 -96 -59 -172.5t-130.5 -120t-175.5 -43.5q-102 0 -185 51t-130 136t-47 186zM104 359q0 -81 38 -151.5t89 -101.5t75 -38 t41.5 -11t43.5 -4q53 0 105 21.5t93.5 60t65 87.5t29.5 104l1 25q0 45 -13.5 91.5t-41 87.5t-66 70.5t-83 43t-88.5 13.5q-55 0 -107.5 -22t-93.5 -64.5t-64 -94.5q-12 -30 -18 -57.5t-6 -59.5zM494 902h39q-15 -49 -37.5 -68.5t-49.5 -19.5q-16 0 -54.5 11.5t-52.5 11.5 q-32 0 -48 -34h-39q12 43 36 65q23 24 58 24q7 0 17 -2t22 -5q45 -16 61 -16q30 0 48 33z" />
<glyph unicode="&#xd6;" horiz-adv-x="787" d="M29 359q0 38 8 74t29.5 87t73.5 101.5t120 77.5t138 27q34 0 83 -9.5t92 -36.5t64 -45.5t40 -44.5t34 -53.5t30.5 -73.5t15.5 -111l-1 -30q-9 -96 -59 -172.5t-130.5 -120t-175.5 -43.5q-102 0 -185 51t-130 136t-47 186zM104 359q0 -81 38 -151.5t89 -101.5t75 -38 t41.5 -11t43.5 -4q53 0 105 21.5t93.5 60t65 87.5t29.5 104l1 25q0 45 -13.5 91.5t-41 87.5t-66 70.5t-83 43t-88.5 13.5q-55 0 -107.5 -22t-93.5 -64.5t-64 -94.5q-12 -30 -18 -57.5t-6 -59.5zM336 893v-80h-68v80h68zM518 893v-80h-71v80h71z" />
<glyph unicode="&#xd7;" horiz-adv-x="832" d="M192 107l191 191l-194 195l34 33l194 -193l189 189l35 -35l-190 -189l193 -193l-34 -34l-193 193l-190 -191z" />
<glyph unicode="&#xd8;" horiz-adv-x="787" d="M82 -66l-45 39l102 119q-15 18 -29.5 37.5t-31 47.5t-30.5 67q-13 43 -17 88l-1 24q0 59 16 109.5t46 95.5t76 83t109 62q63 20 127 20l18 -1q44 0 88 -17.5t95 -51.5l84 102l47 -37l-86 -106q43 -43 68 -88.5t31 -85.5t7 -50.5t1 -31.5q0 -107 -34 -165t-53.5 -80.5 t-57 -52.5t-97 -51.5t-122.5 -21.5t-105 16q-44 14 -104 51zM604 561l-375 -452q39 -24 81 -40q42 -14 85 -14q46 0 91.5 16t81.5 44t76.5 86.5t40.5 159.5l-3 39q-10 83 -78 161zM184 148l377 454q-81 56 -170 56q-79 0 -118.5 -26t-53 -37.5t-35 -35t-51 -76.5t-29.5 -131 q0 -115 80 -204z" />
<glyph unicode="&#xd9;" horiz-adv-x="564" d="M439 711h71v-451q0 -129 -51 -201.5t-176 -72.5q-58 0 -106.5 21t-72.5 55.5t-31.5 58.5t-10 37.5t-4.5 31.5l-3 70v451h70v-428v-20q0 -49 5 -74q4 -30 18.5 -55t35.5 -41.5t41 -23t32.5 -8.5t27.5 -2q40 0 75 19.5t52 52.5q17 28 21 50.5t5 41.5t1 41v19v428zM240 951 l102 -170h-45l-131 170h74z" />
<glyph unicode="&#xda;" horiz-adv-x="564" d="M439 711h71v-451q0 -129 -51 -201.5t-176 -72.5q-58 0 -106.5 21t-72.5 55.5t-31.5 58.5t-10 37.5t-4.5 31.5l-3 70v451h70v-428v-20q0 -49 5 -74q4 -30 18.5 -55t35.5 -41.5t41 -23t32.5 -8.5t27.5 -2q40 0 75 19.5t52 52.5q17 28 21 50.5t5 41.5t1 41v19v428zM322 951 h74l-130 -170h-45z" />
<glyph unicode="&#xdb;" horiz-adv-x="564" d="M439 711h71v-451q0 -129 -51 -201.5t-176 -72.5q-58 0 -106.5 21t-72.5 55.5t-31.5 58.5t-10 37.5t-4.5 31.5l-3 70v451h70v-428v-20q0 -49 5 -74q4 -30 18.5 -55t35.5 -41.5t41 -23t32.5 -8.5t27.5 -2q40 0 75 19.5t52 52.5q17 28 21 50.5t5 41.5t1 41v19v428zM281 910 l-90 -129h-45l98 170h74l98 -170h-45z" />
<glyph unicode="&#xdc;" horiz-adv-x="564" d="M439 711h71v-451q0 -129 -51 -201.5t-176 -72.5q-58 0 -106.5 21t-72.5 55.5t-31.5 58.5t-10 37.5t-4.5 31.5l-3 70v451h70v-428v-20q0 -49 5 -74q4 -30 18.5 -55t35.5 -41.5t41 -23t32.5 -8.5t27.5 -2q40 0 75 19.5t52 52.5q17 28 21 50.5t5 41.5t1 41v19v428zM225 893 v-80h-69v80h69zM406 893v-80h-70v80h70z" />
<glyph unicode="&#xdd;" horiz-adv-x="479" d="M422 711h78l-229 -449v-262h-68v262l-226 449h80l181 -369zM281 951h74l-130 -170h-45z" />
<glyph unicode="&#xde;" horiz-adv-x="506" d="M129 0h-70v711h70v-139l46 1l54 1q42 0 75.5 -5t61 -17t54.5 -40.5t39 -60.5q16 -35 16 -70q0 -45 -15 -83t-43 -69q-31 -29 -63.5 -45t-66.5 -20t-52.5 -4.5t-29.5 -0.5l-17 1h-18h-41v-160zM129 504v-272h101q15 0 33.5 0.5t40.5 7.5q32 8 55 31q39 36 39 97l-2 27 q-11 66 -57 88q-43 23 -118 23l-47 -1z" />
<glyph unicode="&#xdf;" horiz-adv-x="586" d="M125 0h-68v471q0 72 15 125.5t45 74t44.5 27.5t38 13.5t57.5 6.5q65 0 111 -27t71 -75.5t25 -99.5q0 -41 -18 -73.5t-55 -47.5q108 -30 136.5 -87.5t28.5 -106.5q0 -64 -33 -114.5t-84 -75.5t-109 -25q-51 0 -92 18q-39 19 -64.5 53.5t-48.5 83.5v-141zM125 479v-303h68 q19 -53 49 -88q31 -33 80 -37l13 -1q40 0 79 24.5t59 62.5q10 24 10 52q0 59 -32.5 94t-72 44t-94.5 9h-38v55q12 1 28 2.5t41 11t44.5 29.5t25.5 43t6 43q0 31 -12.5 58.5t-43 50.5t-79.5 23q-41 0 -74.5 -20t-42 -48.5t-11.5 -52t-3 -52.5z" />
<glyph unicode="&#xe0;" horiz-adv-x="631" d="M576 0h-68l2 86q-35 -50 -87 -75t-115 -25q-51 0 -90 14t-60 27t-51.5 39.5t-55 80.5t-24.5 119q0 61 25 116.5t65 92.5t89 56t104 19q40 0 75.5 -11t67.5 -33t57 -55l-2 86h68v-537zM510 271q0 55 -29 106t-75 79.5t-100 28.5l-19 -1q-41 -4 -76 -24q-33 -17 -59.5 -49 t-39 -69t-12.5 -78v-18q0 -25 7.5 -48.5t29.5 -58t68 -61.5t100 -27q56 0 103.5 31t74.5 82.5t27 106.5zM268 779l101 -170h-45l-131 170h75z" />
<glyph unicode="&#xe1;" horiz-adv-x="631" d="M576 0h-68l2 86q-35 -50 -87 -75t-115 -25q-51 0 -90 14t-60 27t-51.5 39.5t-55 80.5t-24.5 119q0 61 25 116.5t65 92.5t89 56t104 19q40 0 75.5 -11t67.5 -33t57 -55l-2 86h68v-537zM510 271q0 55 -29 106t-75 79.5t-100 28.5l-19 -1q-41 -4 -76 -24q-33 -17 -59.5 -49 t-39 -69t-12.5 -78v-18q0 -25 7.5 -48.5t29.5 -58t68 -61.5t100 -27q56 0 103.5 31t74.5 82.5t27 106.5zM350 779h74l-131 -170h-45z" />
<glyph unicode="&#xe2;" horiz-adv-x="631" d="M576 0h-68l2 86q-35 -50 -87 -75t-115 -25q-51 0 -90 14t-60 27t-51.5 39.5t-55 80.5t-24.5 119q0 61 25 116.5t65 92.5t89 56t104 19q40 0 75.5 -11t67.5 -33t57 -55l-2 86h68v-537zM510 271q0 55 -29 106t-75 79.5t-100 28.5l-19 -1q-41 -4 -76 -24q-33 -17 -59.5 -49 t-39 -69t-12.5 -78v-18q0 -25 7.5 -48.5t29.5 -58t68 -61.5t100 -27q56 0 103.5 31t74.5 82.5t27 106.5zM309 738l-90 -129h-45l97 170h75l97 -170h-45z" />
<glyph unicode="&#xe3;" horiz-adv-x="631" d="M576 0h-68l2 86q-35 -50 -87 -75t-115 -25q-51 0 -90 14t-60 27t-51.5 39.5t-55 80.5t-24.5 119q0 61 25 116.5t65 92.5t89 56t104 19q40 0 75.5 -11t67.5 -33t57 -55l-2 86h68v-537zM510 271q0 55 -29 106t-75 79.5t-100 28.5l-19 -1q-41 -4 -76 -24q-33 -17 -59.5 -49 t-39 -69t-12.5 -78v-18q0 -25 7.5 -48.5t29.5 -58t68 -61.5t100 -27q56 0 103.5 31t74.5 82.5t27 106.5zM410 730h39q-15 -49 -37 -68t-50 -19l-26 3l-33 9l-28 8l-20 3q-31 0 -48 -35h-39q4 14 8.5 24.5t13 22.5t14.5 18.5t21 15t37 8.5q7 0 16 -1.5t38.5 -11.5t45.5 -10 q30 0 48 33z" />
<glyph unicode="&#xe4;" horiz-adv-x="631" d="M576 0h-68l2 86q-35 -50 -87 -75t-115 -25q-51 0 -90 14t-60 27t-51.5 39.5t-55 80.5t-24.5 119q0 61 25 116.5t65 92.5t89 56t104 19q40 0 75.5 -11t67.5 -33t57 -55l-2 86h68v-537zM510 271q0 55 -29 106t-75 79.5t-100 28.5l-19 -1q-41 -4 -76 -24q-33 -17 -59.5 -49 t-39 -69t-12.5 -78v-18q0 -25 7.5 -48.5t29.5 -58t68 -61.5t100 -27q56 0 103.5 31t74.5 82.5t27 106.5zM252 721v-80h-68v80h68zM434 721v-80h-71v80h71z" />
<glyph unicode="&#xe5;" horiz-adv-x="631" d="M510 271q0 55 -29 106t-75 79.5t-100 28.5l-19 -1q-41 -4 -76 -24q-33 -17 -59.5 -49t-39 -69t-12.5 -78v-18q0 -25 7.5 -48.5t29.5 -58t68 -61.5t100 -27q56 0 103.5 31t74.5 82.5t27 106.5zM576 0h-68l2 86q-35 -50 -87 -75t-115 -25q-51 0 -90 14t-60 27t-51.5 39.5 t-55 80.5t-24.5 119q0 61 25 116.5t65 92.5t89 56t104 19q40 0 75.5 -11t67.5 -33t57 -55l-2 86h68v-537zM203 689q0 52 33.5 81.5t78.5 29.5q27 0 56 -13q26 -14 42 -38q15 -26 15 -60q0 -33 -15 -59q-17 -26 -42 -38.5t-56 -12.5q-47 0 -79.5 29t-32.5 81zM246 689 q0 -32 22 -49q19 -18 49 -18t49 18q21 17 21 49q0 33 -20.5 51t-49.5 18q-27 0 -49 -19t-22 -50z" />
<glyph unicode="&#xe6;" horiz-adv-x="1088" d="M510 271q0 55 -29 106t-75 79.5t-100 28.5l-19 -1q-41 -4 -76 -24q-33 -17 -59.5 -49t-39 -69t-12.5 -78v-18q0 -25 7.5 -48.5t29.5 -58t68 -61.5t100 -27q56 0 103.5 31t74.5 82.5t27 106.5zM582 305h406q-21 85 -68 133t-127 48h-10q-163 0 -201 -181zM576 74v-74h-68 v74q-12 -10 -27.5 -23t-42 -29.5t-59.5 -26t-76 -9.5q-74 0 -119 25.5t-68.5 47.5t-51 64.5t-35.5 118.5l-2 26q0 58 27 117.5t72 98.5t94.5 52t87.5 13q57 0 104.5 -22t95.5 -66v76h68v-80q63 60 114.5 76.5t97.5 16.5q25 0 51 -5t63 -19t74.5 -52t58.5 -85 q15 -30 19.5 -59t6.5 -49t2 -37h-483q4 -35 13.5 -62.5t43 -70t78 -51.5t68.5 -9q56 0 85.5 16t40.5 25t21.5 21.5t19.5 24.5t19 30h76q-8 -20 -16 -33.5t-26 -39.5t-45.5 -50t-62.5 -38t-81 -19l-30 -1q-60 0 -97 15t-62 32t-49 40z" />
<glyph unicode="&#xe7;" horiz-adv-x="605" d="M563 371h-79q-65 116 -172 116q-29 0 -56 -7q-46 -9 -82 -42q-36 -30 -55 -75t-19 -93q0 -70 38 -129t76.5 -71.5t55.5 -15.5t32 -3q54 0 104 27q25 15 41 34.5t22.5 29t14.5 26.5h77q-16 -42 -45 -79t-53.5 -54t-42 -25.5t-46.5 -16.5t-66 -8q-55 0 -104 20t-89 57 t-64 90.5t-24 115.5q0 58 21 108t59 90.5t90.5 63.5t107.5 23q63 0 111.5 -21.5t83.5 -62t63 -98.5zM271 0h32v-53q19 0 35.5 -2.5t37 -8.5t32.5 -32q11 -15 11 -41q0 -31 -23 -59.5t-86 -28.5q-26 0 -56 6l-68 16v37l34 -8l41 -8q16 -4 40 -4q58 0 64 38l1 10q0 49 -77 49 l-18 -1v90z" />
<glyph unicode="&#xe8;" horiz-adv-x="605" d="M100 305h406q-21 86 -70.5 133.5t-134.5 47.5q-59 0 -100.5 -23t-66 -64t-34.5 -94zM582 246h-484q6 -37 6.5 -40t8 -28t29.5 -51.5t53 -44.5q29 -19 56.5 -24t50.5 -5q53 0 102 25q50 29 82 92h78q-25 -57 -61 -98t-86 -63.5t-110 -22.5q-77 0 -142 38t-102.5 104 t-37.5 142q0 81 38 145.5t102.5 100t142.5 35.5h22t49 -6.5t89 -42.5t77 -90q18 -31 27.5 -72t9.5 -94zM268 779l101 -170h-45l-131 170h75z" />
<glyph unicode="&#xe9;" horiz-adv-x="605" d="M100 305h406q-21 86 -70.5 133.5t-134.5 47.5q-59 0 -100.5 -23t-66 -64t-34.5 -94zM582 246h-484q6 -37 6.5 -40t8 -28t29.5 -51.5t53 -44.5q29 -19 56.5 -24t50.5 -5q53 0 102 25q50 29 82 92h78q-25 -57 -61 -98t-86 -63.5t-110 -22.5q-77 0 -142 38t-102.5 104 t-37.5 142q0 81 38 145.5t102.5 100t142.5 35.5h22t49 -6.5t89 -42.5t77 -90q18 -31 27.5 -72t9.5 -94zM350 779h74l-131 -170h-45z" />
<glyph unicode="&#xea;" horiz-adv-x="605" d="M100 305h406q-21 86 -70.5 133.5t-134.5 47.5q-59 0 -100.5 -23t-66 -64t-34.5 -94zM582 246h-484q6 -37 6.5 -40t8 -28t29.5 -51.5t53 -44.5q29 -19 56.5 -24t50.5 -5q53 0 102 25q50 29 82 92h78q-25 -57 -61 -98t-86 -63.5t-110 -22.5q-77 0 -142 38t-102.5 104 t-37.5 142q0 81 38 145.5t102.5 100t142.5 35.5h22t49 -6.5t89 -42.5t77 -90q18 -31 27.5 -72t9.5 -94zM309 738l-90 -129h-45l97 170h75l97 -170h-45z" />
<glyph unicode="&#xeb;" horiz-adv-x="605" d="M100 305h406q-21 86 -70.5 133.5t-134.5 47.5q-59 0 -100.5 -23t-66 -64t-34.5 -94zM582 246h-484q6 -37 6.5 -40t8 -28t29.5 -51.5t53 -44.5q29 -19 56.5 -24t50.5 -5q53 0 102 25q50 29 82 92h78q-25 -57 -61 -98t-86 -63.5t-110 -22.5q-77 0 -142 38t-102.5 104 t-37.5 142q0 81 38 145.5t102.5 100t142.5 35.5h22t49 -6.5t89 -42.5t77 -90q18 -31 27.5 -72t9.5 -94zM252 721v-80h-68v80h68zM434 721v-80h-71v80h71z" />
<glyph unicode="&#xec;" horiz-adv-x="182" d="M125 537v-537h-68v537h68zM51 779l101 -170h-45l-130 170h74z" />
<glyph unicode="&#xed;" horiz-adv-x="182" d="M125 537v-537h-68v537h68zM133 779h74l-131 -170h-45z" />
<glyph unicode="&#xee;" horiz-adv-x="182" d="M125 537v-537h-68v537h68zM92 738l-90 -129h-45l98 170h74l98 -170h-45z" />
<glyph unicode="&#xef;" horiz-adv-x="182" d="M125 537v-537h-68v537h68zM35 721v-80h-68v80h68zM217 721v-80h-71v80h71z" />
<glyph unicode="&#xf0;" horiz-adv-x="605" d="M480 447q-16 45 -45 84.5t-66 66.5l-131 -49l-17 41l107 41l-35 20l-17 9l-24 12l19 45q78 -37 122 -65l138 51l18 -39l-115 -43q89 -87 127 -197q20 -72 20 -134q0 -14 -1 -30.5t-5.5 -51t-29 -79t-62.5 -76.5t-85 -49t-97 -17q-17 0 -27 1t-41.5 7t-72.5 29t-71.5 61 t-46 81.5t-15.5 83.5q0 63 26 110.5t59.5 78t73.5 49.5t85 24l29 2q46 0 91 -17q20 -9 43 -21.5t46 -28.5zM299 457q-27 0 -50.5 -7.5t-50.5 -22.5q-45 -28 -72 -74.5t-27 -100.5l1 -18q5 -54 33 -94.5t74 -64.5t98 -24q48 0 88 17q37 18 63 46q25 30 37.5 68t12.5 72 q0 52 -24 99.5t-70 75.5t-113 28z" />
<glyph unicode="&#xf1;" horiz-adv-x="559" d="M504 309v-309h-68v301q0 57 -8 90t-42 62t-93 29l-29 -2q-20 0 -39 -6.5t-45 -23.5t-42.5 -54t-16.5 -110v-24v-262h-66v537h66v-60q69 72 171 72q46 0 97 -20q115 -52 115 -220zM387 730h39q-17 -48 -37.5 -67.5t-50.5 -19.5q-20 0 -56 11.5t-51 11.5q-32 0 -47 -35h-39 q12 41 35.5 65t58.5 24q6 0 15.5 -1.5t38.5 -11.5t45 -10q31 0 49 33z" />
<glyph unicode="&#xf2;" horiz-adv-x="605" d="M25 268q0 59 21 108.5t62 92t92.5 64t104.5 21.5l21 -1q74 -8 117 -38t66 -56t47 -71.5t24 -114.5q0 -64 -24.5 -119.5t-71.5 -96.5q-34 -33 -80 -52t-101 -19l-13 -1q-54 0 -89.5 18t-58 34.5t-38.5 36.5q-36 39 -57.5 92t-21.5 102zM98 270q0 -33 8 -63.5t29.5 -67.5 t70 -62t98.5 -25q52 0 99 24.5t76 74t29 119.5q0 51 -17.5 93t-45 68.5t-66.5 42.5q-24 8 -41.5 10.5t-34.5 2.5q-39 0 -74.5 -13.5t-66.5 -41.5t-47.5 -69.5t-16.5 -92.5zM268 779l101 -170h-45l-131 170h75z" />
<glyph unicode="&#xf3;" horiz-adv-x="605" d="M25 268q0 59 21 108.5t62 92t92.5 64t104.5 21.5l21 -1q74 -8 117 -38t66 -56t47 -71.5t24 -114.5q0 -64 -24.5 -119.5t-71.5 -96.5q-34 -33 -80 -52t-101 -19l-13 -1q-54 0 -89.5 18t-58 34.5t-38.5 36.5q-36 39 -57.5 92t-21.5 102zM98 270q0 -33 8 -63.5t29.5 -67.5 t70 -62t98.5 -25q52 0 99 24.5t76 74t29 119.5q0 51 -17.5 93t-45 68.5t-66.5 42.5q-24 8 -41.5 10.5t-34.5 2.5q-39 0 -74.5 -13.5t-66.5 -41.5t-47.5 -69.5t-16.5 -92.5zM350 779h74l-131 -170h-45z" />
<glyph unicode="&#xf4;" horiz-adv-x="605" d="M25 268q0 59 21 108.5t62 92t92.5 64t104.5 21.5l21 -1q74 -8 117 -38t66 -56t47 -71.5t24 -114.5q0 -64 -24.5 -119.5t-71.5 -96.5q-34 -33 -80 -52t-101 -19l-13 -1q-54 0 -89.5 18t-58 34.5t-38.5 36.5q-36 39 -57.5 92t-21.5 102zM98 270q0 -33 8 -63.5t29.5 -67.5 t70 -62t98.5 -25q52 0 99 24.5t76 74t29 119.5q0 51 -17.5 93t-45 68.5t-66.5 42.5q-24 8 -41.5 10.5t-34.5 2.5q-39 0 -74.5 -13.5t-66.5 -41.5t-47.5 -69.5t-16.5 -92.5zM309 738l-90 -129h-45l97 170h75l97 -170h-45z" />
<glyph unicode="&#xf5;" horiz-adv-x="605" d="M25 268q0 59 21 108.5t62 92t92.5 64t104.5 21.5l21 -1q74 -8 117 -38t66 -56t47 -71.5t24 -114.5q0 -64 -24.5 -119.5t-71.5 -96.5q-34 -33 -80 -52t-101 -19l-13 -1q-54 0 -89.5 18t-58 34.5t-38.5 36.5q-36 39 -57.5 92t-21.5 102zM98 270q0 -33 8 -63.5t29.5 -67.5 t70 -62t98.5 -25q52 0 99 24.5t76 74t29 119.5q0 51 -17.5 93t-45 68.5t-66.5 42.5q-24 8 -41.5 10.5t-34.5 2.5q-39 0 -74.5 -13.5t-66.5 -41.5t-47.5 -69.5t-16.5 -92.5zM410 730h39q-15 -49 -37 -68t-50 -19l-26 3l-33 9l-28 8l-20 3q-31 0 -48 -35h-39q4 14 8.5 24.5 t13 22.5t14.5 18.5t21 15t37 8.5q7 0 16 -1.5t38.5 -11.5t45.5 -10q30 0 48 33z" />
<glyph unicode="&#xf6;" horiz-adv-x="605" d="M25 268q0 59 21 108.5t62 92t92.5 64t104.5 21.5l21 -1q74 -8 117 -38t66 -56t47 -71.5t24 -114.5q0 -64 -24.5 -119.5t-71.5 -96.5q-34 -33 -80 -52t-101 -19l-13 -1q-54 0 -89.5 18t-58 34.5t-38.5 36.5q-36 39 -57.5 92t-21.5 102zM98 270q0 -33 8 -63.5t29.5 -67.5 t70 -62t98.5 -25q52 0 99 24.5t76 74t29 119.5q0 51 -17.5 93t-45 68.5t-66.5 42.5q-24 8 -41.5 10.5t-34.5 2.5q-39 0 -74.5 -13.5t-66.5 -41.5t-47.5 -69.5t-16.5 -92.5zM252 721v-80h-68v80h68zM434 721v-80h-71v80h71z" />
<glyph unicode="&#xf7;" horiz-adv-x="832" d="M123 318h586v-41h-586v41zM416 426q15 0 25.5 -10.5t10.5 -25.5t-10.5 -25.5t-25.5 -10.5t-25.5 10.5t-10.5 25.5t10.5 25.5t25.5 10.5zM417 242q15 0 25.5 -10.5t10.5 -25.5t-10.5 -25.5t-25.5 -10.5t-25.5 10.5t-10.5 25.5t10.5 25.5t25.5 10.5z" />
<glyph unicode="&#xf8;" horiz-adv-x="605" d="M145 127l271 324q-46 37 -110 37q-38 0 -74 -13t-85 -58t-49 -141q0 -17 3 -37.5t9.5 -41t14 -37t20.5 -33.5zM461 414l-275 -326q57 -38 120 -38q54 0 89 21.5t53.5 41t39.5 57.5t21 97q0 76 -48 147zM143 35l-86 -101l-41 39l86 101q-77 89 -77 195q0 75 38 140.5 t103 106t138 40.5q84 0 155 -52l82 98l45 -36l-84 -99q78 -87 78 -197q0 -75 -36.5 -140.5t-100.5 -105t-137 -39.5q-81 0 -163 50z" />
<glyph unicode="&#xf9;" horiz-adv-x="559" d="M53 227v310h68v-305q0 -20 2 -39.5t6.5 -44t36.5 -61t107 -36.5l40 4q34 6 63 29t40.5 48.5t16.5 57.5l3 60v23v264h68v-537h-68v59q-66 -73 -158 -73q-27 0 -87.5 13.5t-89 59.5t-38.5 85t-10 83zM234 779l102 -170h-45l-131 170h74z" />
<glyph unicode="&#xfa;" horiz-adv-x="559" d="M53 227v310h68v-305q0 -20 2 -39.5t6.5 -44t36.5 -61t107 -36.5l40 4q34 6 63 29t40.5 48.5t16.5 57.5l3 60v23v264h68v-537h-68v59q-66 -73 -158 -73q-27 0 -87.5 13.5t-89 59.5t-38.5 85t-10 83zM316 779h75l-131 -170h-45z" />
<glyph unicode="&#xfb;" horiz-adv-x="559" d="M53 227v310h68v-305q0 -20 2 -39.5t6.5 -44t36.5 -61t107 -36.5l40 4q34 6 63 29t40.5 48.5t16.5 57.5l3 60v23v264h68v-537h-68v59q-66 -73 -158 -73q-27 0 -87.5 13.5t-89 59.5t-38.5 85t-10 83zM275 738l-89 -129h-45l97 170h75l97 -170h-45z" />
<glyph unicode="&#xfc;" horiz-adv-x="559" d="M53 227v310h68v-305q0 -20 2 -39.5t6.5 -44t36.5 -61t107 -36.5l40 4q34 6 63 29t40.5 48.5t16.5 57.5l3 60v23v264h68v-537h-68v59q-66 -73 -158 -73q-27 0 -87.5 13.5t-89 59.5t-38.5 85t-10 83zM219 721v-80h-69v80h69zM400 721v-80h-70v80h70z" />
<glyph unicode="&#xfd;" horiz-adv-x="461" d="M119 -174l72 176l-207 535h79l166 -435l173 435h80l-289 -711h-74zM271 779h75l-131 -170h-45z" />
<glyph unicode="&#xfe;" horiz-adv-x="631" d="M121 86l1 -59l1 -58v-143h-70v885h70l-4 -262q30 48 83.5 74.5t115.5 26.5q53 0 102 -17.5t91 -54.5t66.5 -91t24.5 -121q0 -61 -24 -115.5t-64 -90.5t-89 -55t-102 -19q-60 0 -99 19.5t-59.5 35t-43.5 45.5zM121 271q0 -40 16 -81t44.5 -72.5t65.5 -49t77 -17.5 q56 0 92 22t54.5 41.5t31.5 45.5q27 48 27 104t-24.5 104.5t-66 78t-96.5 37.5l-18 1q-55 0 -100.5 -30t-74 -80t-28.5 -104z" />
<glyph unicode="&#xff;" horiz-adv-x="461" d="M119 -174l72 176l-207 535h79l166 -435l173 435h80l-289 -711h-74zM174 721v-80h-69v80h69zM355 721v-80h-70v80h70z" />
<glyph unicode="&#x131;" horiz-adv-x="182" d="M125 537v-537h-68v537h68z" />
<glyph unicode="&#x141;" horiz-adv-x="168" d="M275 725h57l-439 -739h-59z" />
<glyph unicode="&#x152;" horiz-adv-x="1090" d="M104 359q0 -81 38 -151.5t89 -101.5t75 -38t41.5 -11t43.5 -4q53 0 105 21.5t93.5 60t65 87.5t29.5 104l1 25q0 45 -13.5 91.5t-41 87.5t-66 70.5t-83 43t-88.5 13.5q-55 0 -107.5 -22t-93.5 -64.5t-64 -94.5q-12 -30 -18 -57.5t-6 -59.5zM1049 0h-369v127 q-40 -46 -82.5 -77t-92.5 -47.5t-110 -16.5h-18q-9 0 -58.5 5.5t-122 53.5t-115.5 122t-50 159l-1 27q0 83 36 161.5t102 132.5t117 63.5t69 11.5t39 2q90 0 168 -38q65 -35 119 -104v129h371v-70h-301v-248h299v-71h-299v-254h299v-68z" />
<glyph unicode="&#x153;" horiz-adv-x="1088" d="M98 270q0 -33 8 -63.5t29.5 -67.5t70 -62t98.5 -25q52 0 99 24.5t76 74t29 119.5q0 51 -17.5 93t-45 68.5t-66.5 42.5q-24 8 -41.5 10.5t-34.5 2.5q-39 0 -74.5 -13.5t-66.5 -41.5t-47.5 -69.5t-16.5 -92.5zM582 305h406q-21 85 -68 133t-127 48h-10q-56 0 -98 -23.5 t-67 -63t-36 -94.5zM1063 244h-483q4 -35 13.5 -62.5t43 -70t78 -51.5t68.5 -9q56 0 102 25q25 15 42.5 35.5t41.5 56.5h76q-84 -182 -260 -182q-40 0 -74 8.5t-58.5 23.5t-37 25.5t-32.5 33t-38 54.5q-39 -67 -96 -106.5t-128 -39.5l-14 1q-31 0 -56 5.5t-56 16.5 q-49 20 -90 60q-36 41 -52.5 82.5t-22 65.5t-5.5 52q0 84 39 149t104 101t137 36t135 -37t105 -111q40 68 104.5 108t139.5 40l24 -1q49 -5 86 -22t71.5 -49t54 -68.5t29 -77t9.5 -92.5z" />
<glyph unicode="&#x160;" horiz-adv-x="465" d="M27 203h69q5 -46 19.5 -79t39.5 -46.5t38.5 -16.5t32.5 -3q31 0 58.5 12.5t47.5 36.5q29 41 29 96q0 24 -6 47q-11 33 -39.5 54.5t-66.5 33.5l-77 25q-114 45 -123 147l-1 22q0 37 14 75.5t35.5 60t43.5 34.5q13 6 22 9.5t29 8.5t44 5q37 0 77 -14q53 -23 75 -68.5 t28 -107.5h-66q-12 100 -53.5 110.5t-59.5 10.5q-24 0 -52 -11q-25 -12 -47 -38.5t-22 -71.5t26.5 -70t66.5 -40l86 -30q48 -18 77.5 -40t45 -61t15.5 -79q0 -44 -12.5 -78.5t-24 -53.5t-34 -45t-62 -39t-75.5 -13q-56 0 -100 28t-71 78.5t-27 110.5zM235 828l90 129h45 l-98 -170h-74l-97 170h45z" />
<glyph unicode="&#x161;" horiz-adv-x="389" d="M21 170h71q0 -40 15.5 -68t42.5 -41q25 -10 43 -10q25 0 48 12.5t34.5 33t11.5 43.5q0 31 -20.5 58t-55.5 40l-68 26q-33 12 -55.5 31.5t-33 49t-10.5 53.5q0 16 2.5 28.5t13 36t44.5 56t99 32.5q33 0 70 -16q40 -15 58.5 -49.5t22.5 -83.5h-75q-8 62 -52 77l-29 3 q-33 0 -57 -21t-24 -60q0 -18 6.5 -33.5t25 -29t44.5 -22.5l49 -16q17 -5 21.5 -7t30.5 -15t47.5 -49.5t21.5 -80.5q0 -40 -20 -78t-60.5 -60.5t-90.5 -22.5q-49 0 -82.5 18.5t-47.5 38t-20 32t-11.5 32t-7.5 34t-2 28.5zM195 650l90 129h45l-98 -170h-74l-97 170h44z" />
<glyph unicode="&#x178;" horiz-adv-x="479" d="M422 711h78l-229 -449v-262h-68v262l-226 449h80l181 -369zM182 865v-80h-69v80h69zM363 865v-80h-70v80h70z" />
<glyph unicode="&#x192;" horiz-adv-x="564" d="M443 367h-125l-33 -388q-9 -99 -51 -141t-136 -42l-22 1l4 64h17q58 0 85 19.5t33 80.5l37 406h-125l4 65h125l10 111l6 57q2 15 9 34t19.5 36t43 35.5t100.5 18.5l31 -1l-4 -65l-30 1q-39 0 -60 -9q-21 -7 -30 -31q-11 -24 -15 -70l-12 -117h125z" />
<glyph unicode="&#x2c6;" d="M250 738l-90 -129h-45l98 170h74l98 -170h-45z" />
<glyph unicode="&#x2c7;" d="M250 650l90 129h45l-98 -170h-74l-98 170h45z" />
<glyph unicode="&#x2d8;" d="M115 760h39q6 -41 30 -56q22 -16 66 -16q45 0 67 15.5t27 56.5h41q-7 -66 -38 -97.5t-97 -31.5q-42 0 -71 13.5t-43.5 41.5t-20.5 74z" />
<glyph unicode="&#x2da;" horiz-adv-x="328" d="M164 709q37 0 68 -18.5t51 -50.5q18 -32 18 -68v-11q-5 -35 -23.5 -62.5t-48 -44t-65.5 -16.5q-34 0 -63.5 15.5t-49 44t-22.5 61.5l-1 13q0 35 18.5 67t49.5 51t68 19zM164 676q-31 0 -54.5 -15t-34.5 -37.5t-11 -48.5q0 -41 26.5 -71.5t72.5 -30.5h13q27 3 49 17 q20 15 30 36.5t10 45.5q0 26 -11 49.5t-29.5 35.5t-31 15.5t-29.5 3.5z" />
<glyph unicode="&#x2dc;" d="M352 730h39q-17 -48 -37.5 -67.5t-49.5 -19.5q-16 0 -24 2t-38.5 11.5t-45.5 9.5q-31 0 -48 -35h-39q12 42 37 65q23 24 58 24q7 0 16 -1.5t38 -11.5t45 -10q29 0 49 33z" />
<glyph unicode="&#x3a3;" horiz-adv-x="631" />
<glyph unicode="&#x3a9;" horiz-adv-x="879" />
<glyph unicode="&#x3c0;" horiz-adv-x="879" />
<glyph unicode="&#x2013;" d="M0 240v55h500v-55h-500z" />
<glyph unicode="&#x2014;" horiz-adv-x="1000" d="M1000 240h-998l-2 55h998z" />
<glyph unicode="&#x2018;" horiz-adv-x="193" d="M37 711h70l77 -209h-71z" />
<glyph unicode="&#x2019;" horiz-adv-x="193" d="M88 711h68l-76 -209h-68z" />
<glyph unicode="&#x201a;" horiz-adv-x="201" d="M88 131h68l-76 -209h-68z" />
<glyph unicode="&#x201c;" horiz-adv-x="338" d="M107 711l77 -209h-71l-76 209h70zM252 711l74 -209h-68l-76 209h70z" />
<glyph unicode="&#x201d;" horiz-adv-x="338" d="M88 711h68l-76 -209h-68zM230 711h71l-76 -209h-71z" />
<glyph unicode="&#x201e;" horiz-adv-x="338" d="M88 131h68l-76 -209h-68zM230 131h71l-76 -209h-71z" />
<glyph unicode="&#x2020;" d="M285 445v-556h-70v556h-180v63h180v203h70v-203h180v-63h-180z" />
<glyph unicode="&#x2021;" d="M283 92v-203h-70v203h-180v60h180v293h-180v63h180v203h70v-203h184v-63h-184v-293h184v-60h-184z" />
<glyph unicode="&#x2022;" horiz-adv-x="281" d="M96 355q0 19 13 31.5t33 12.5q21 0 33.5 -12t12.5 -32q0 -19 -13.5 -30.5t-32.5 -11.5q-18 0 -32 11.5t-14 30.5z" />
<glyph unicode="&#x2026;" horiz-adv-x="1000" d="M131 131h70v-131h-70v131zM463 131h70v-131h-70v131zM797 131h70v-131h-70v131z" />
<glyph unicode="&#x2030;" horiz-adv-x="1314" d="M482 160q0 49 24.5 89.5t55.5 57t52.5 22.5t44.5 6q36 0 66 -13q47 -18 77 -63t30 -99q0 -46 -23 -87q-26 -42 -66 -64.5t-87 -22.5q-37 0 -66 12.5t-55 38t-39 57.5q-8 16 -11 31t-3 35zM545 160q0 -36 16 -59q14 -24 40 -38q27 -12 55 -12t54 12q26 14 42 39t16 58 q0 52 -33.5 81t-77.5 29q-30 0 -56 -13t-41 -38.5t-15 -58.5zM277 -14h-56l381 739h54zM922 160q0 49 24.5 89.5t65.5 63t87 22.5q36 0 66.5 -13t55 -38t37.5 -56.5t13 -67.5q0 -46 -24.5 -87.5t-64.5 -64t-84 -22.5q-46 0 -86.5 23t-65 64.5t-24.5 86.5zM984 160 q0 -36 16 -59q14 -24 40 -38q27 -12 55 -12q27 0 54 12q27 14 41.5 38t14.5 59q0 52 -32.5 80.5t-77.5 28.5q-46 0 -78.5 -28.5t-32.5 -80.5zM45 551q0 34 14 67t40.5 57.5t55.5 35.5q30 13 66 13q34 0 74.5 -16t70 -61.5t29.5 -95.5q0 -47 -23 -88q-26 -42 -66 -65t-87 -23 q-46 0 -86.5 23.5t-64 64.5t-23.5 88zM107 549q0 -35 16 -61t37 -35.5t33.5 -12t24.5 -2.5q25 0 51.5 12t42.5 38t16 61q0 50 -33 79t-77 29q-46 0 -78.5 -29t-32.5 -79z" />
<glyph unicode="&#x2039;" horiz-adv-x="309" d="M121 268l121 -157h-66l-119 157l119 158h66z" />
<glyph unicode="&#x203a;" horiz-adv-x="309" d="M133 426l119 -158l-119 -157h-69l122 157l-122 158h69z" />
<glyph unicode="&#x2122;" horiz-adv-x="832" d="M215 682h-86v29h211v-29h-84v-231h-41v231zM436 451h-36v260h57l82 -207l76 207h57v-260h-35v229l-86 -229h-24l-91 229v-229z" />
<glyph unicode="&#x2202;" horiz-adv-x="506" />
<glyph unicode="&#x2206;" />
<glyph unicode="&#x220f;" horiz-adv-x="879" />
<glyph unicode="&#x2212;" horiz-adv-x="322" d="M47 236v65h228v-65h-228z" />
<glyph unicode="&#x221a;" horiz-adv-x="373" />
<glyph unicode="&#x221e;" horiz-adv-x="605" />
<glyph unicode="&#x222b;" horiz-adv-x="373" />
<glyph unicode="&#x2248;" horiz-adv-x="373" />
<glyph unicode="&#x2260;" horiz-adv-x="674" />
<glyph unicode="&#x2264;" horiz-adv-x="479" />
<glyph unicode="&#x2265;" horiz-adv-x="461" />
<glyph unicode="&#x25fc;" horiz-adv-x="535" d="M0 535h535v-535h-535v535z" />
<glyph unicode="&#xf001;" horiz-adv-x="465" d="M328 711h70v-111h-70v111zM262 477h-112v-477h-66v477h-72v60h68q0 64 20 107q16 39 46 52t57.5 18t60.5 5v-63q-25 0 -41 -3t-34.5 -12t-28.5 -35.5t-10 -68.5h112v-60zM398 537v-537h-70v537h70z" />
<glyph unicode="&#xf002;" horiz-adv-x="465" d="M262 477h-112v-477h-66v477h-72v60h68q0 64 20 107q16 39 46 52t57.5 18t60.5 5v-63q-25 0 -41 -3t-34.5 -12t-28.5 -35.5t-10 -68.5h112v-60zM398 711v-711h-70v711h70z" />
</font>
</defs>
</svg>
